<?xml version="1.0" encoding="utf-8"?>
<!-- Generator: Adobe Illustrator 19.2.0, SVG Export Plug-In . SVG Version: 6.00 Build 0)  -->
<svg version="1.1" id="Layer_1" xmlns="http://www.w3.org/2000/svg" xmlns:xlink="http://www.w3.org/1999/xlink" x="0px" y="0px"
	 viewBox="0 0 31 31" enable-background="new 0 0 31 31" xml:space="preserve">
<g>
	<g>
		<g>
			<g>
				<path fill="#178FEB" d="M10.3,8.1c0,1.1-0.8,2.1-2.2,2.1C6.8,10.1,6,9.2,6,8.1C6,6.9,6.9,6,8.2,6S10.3,6.9,10.3,8.1z M6.1,25
					V11.7h4.1V25H6.1z"/>
			</g>
		</g>
	</g>
	<g>
		<g>
			<g>
				<path fill="#178FEB" d="M12.6,16c0-1.7-0.1-3-0.1-4.2H16l0.2,1.8h0.1c0.5-0.9,1.8-2.1,4-2.1c2.7,0,4.7,1.8,4.7,5.7V25h-4.1v-7.3
					c0-1.7-0.6-2.9-2.1-2.9c-1.1,0-1.8,0.8-2.1,1.5c-0.1,0.3-0.1,0.7-0.1,1V25h-4.1V16z"/>
			</g>
		</g>
	</g>
</g>
</svg>
