<?xml version="1.0" encoding="utf-8"?>
<!-- Generator: Adobe Illustrator 19.2.0, SVG Export Plug-In . SVG Version: 6.00 Build 0)  -->
<svg version="1.1" id="Layer_1" xmlns="http://www.w3.org/2000/svg" xmlns:xlink="http://www.w3.org/1999/xlink" x="0px" y="0px"
	 viewBox="0 0 31 31" enable-background="new 0 0 31 31" xml:space="preserve">
<g>
	<polygon fill="#178FEB" points="8,13 7,13 7,14 7,17 7,18 8,18 30,18 31,18 31,17 31,14 31,13 30,13 	"/>
	<polygon fill="#178FEB" points="8,21 7,21 7,22 7,25 7,26 8,26 30,26 31,26 31,25 31,22 31,21 30,21 	"/>
	<polygon fill="#178FEB" points="30,5 8,5 7,5 7,6 7,9 7,10 8,10 30,10 31,10 31,9 31,6 31,5 	"/>
	<polygon fill="#178FEB" points="1,5 0,5 0,6 0,9 0,10 1,10 4,10 5,10 5,9 5,6 5,5 4,5 	"/>
	<polygon fill="#178FEB" points="1,13 0,13 0,14 0,17 0,18 1,18 4,18 5,18 5,17 5,14 5,13 4,13 	"/>
	<polygon fill="#178FEB" points="1,21 0,21 0,22 0,25 0,26 1,26 4,26 5,26 5,25 5,22 5,21 4,21 	"/>
</g>
</svg>
