<?xml version="1.0" encoding="utf-8"?>
<!-- Generator: Adobe Illustrator 19.1.0, SVG Export Plug-In . SVG Version: 6.00 Build 0)  -->
<svg version="1.1" id="Layer_1" xmlns="http://www.w3.org/2000/svg" xmlns:xlink="http://www.w3.org/1999/xlink" x="0px" y="0px"
	 viewBox="0 0 31 31" enable-background="new 0 0 31 31" xml:space="preserve">
<g>
	<g>
		<path fill="#178FEB" d="M15,9.5C15,7,13,5,10.5,5C8,5,6,7,6,9.5C6,12,8,14,10.5,14C13,14,15,12,15,9.5z"/>
	</g>
	<g>
		<polygon fill="#178FEB" points="14.3,14 10.5,14 6.7,14 3,20.5 6.7,27 14.3,27 18,20.5 		"/>
	</g>
	<g>
		<path fill="#178FEB" d="M26,15c0-1.7-1.3-3-3-3c-1.7,0-3,1.3-3,3c0,1.7,1.3,3,3,3C24.7,18,26,16.7,26,15z"/>
	</g>
	<g>
		<polygon fill="#178FEB" points="25.5,18 23,18 20.5,18 18,22.5 20.5,27 25.5,27 28,22.5 		"/>
	</g>
</g>
</svg>
