<?xml version="1.0" encoding="utf-8"?>
<!-- Generator: Adobe Illustrator 19.1.0, SVG Export Plug-In . SVG Version: 6.00 Build 0)  -->
<svg version="1.1" id="Layer_1" xmlns="http://www.w3.org/2000/svg" xmlns:xlink="http://www.w3.org/1999/xlink" x="0px" y="0px"
	 viewBox="0 0 31 31" enable-background="new 0 0 31 31" xml:space="preserve">
<g>
	<g>
		<g>
			<g>
				<path fill="#178FEB" d="M15.5,7C16.9,7,18,8.1,18,9.5c0,1.4-1.1,2.5-2.5,2.5c-1.4,0-2.5-1.1-2.5-2.5C13,8.1,14.1,7,15.5,7
					 M15.5,5C13,5,11,7,11,9.5c0,2.5,2,4.5,4.5,4.5C18,14,20,12,20,9.5C20,7,18,5,15.5,5L15.5,5z"/>
			</g>
		</g>
	</g>
	<g>
		<g>
			<g>
				<path fill="#178FEB" d="M18.1,16l2.6,4.5L18.1,25h-5.2l-2.6-4.5l2.6-4.5H18.1 M19.3,14h-7.5L8,20.5l3.7,6.5h7.5l3.7-6.5L19.3,14
					L19.3,14z"/>
			</g>
		</g>
	</g>
</g>
</svg>
