<?xml version="1.0" encoding="utf-8"?>
<!-- Generator: Adobe Illustrator 19.2.0, SVG Export Plug-In . SVG Version: 6.00 Build 0)  -->
<svg version="1.1" id="Layer_1" xmlns="http://www.w3.org/2000/svg" xmlns:xlink="http://www.w3.org/1999/xlink" x="0px" y="0px"
	 viewBox="0 0 31 31" enable-background="new 0 0 31 31" xml:space="preserve">
<g>
	<g>
		<g>
			<g>
				<g>
					<path fill="#BFBFBF" d="M12.2,19.2c-7.5,0-10.3-2.3-10.4-2.5c-0.6-0.6-1.4-4.5-1.7-6.2l0-0.2l0.1-0.2C0.2,10,3.6,5.7,15.5,5.7
						c7.4,0,13.7,2.3,15.1,3.8c0.3,0.3,0.4,0.6,0.4,0.9l-0.1,0.4c-1.3,5.3-1.5,5.4-1.9,5.5C21.8,18.5,16.3,19.2,12.2,19.2z M1,10.6
						c0.5,2.4,1.1,5,1.4,5.4c0,0,6.3,5.2,26.1-0.5c0.1-0.3,0.5-1.3,1.4-4.8c0-0.1,0-0.2,0.1-0.2c-0.3-0.9-6.5-3.7-14.5-3.7
						C5.4,6.7,1.8,9.8,1,10.6z"/>
				</g>
			</g>
		</g>
		<g>
			<g>
				<g>
					<path fill="#626262" d="M1.7,18.3l0.3,2.9c0,0,11.3,8.6,27-0.6l0.1-2.3C29.2,18.3,12.2,22.2,1.7,18.3z"/>
				</g>
			</g>
		</g>
		<g>
			<g>
				<g>
					<path fill="#626262" d="M1.7,16l0.1,2.3c0,0,9.7,4.5,27.4-0.1l0.1-2.8C29.3,15.5,13,18.3,1.7,16z"/>
				</g>
			</g>
		</g>
		<g opacity="0.3">
			<g>
				<g>
					<g>
						<path fill="#FFFFFF" d="M29.2,18.3c0,0,0,0.1-0.7,0.3c-0.4,0.1-0.8,0.2-1.4,0.4c-0.3,0.1-0.5,0.2-0.8,0.2
							c-0.3,0.1-0.6,0.1-0.9,0.2c-0.7,0.1-1.4,0.3-2.1,0.4c-0.8,0.1-1.5,0.2-2.4,0.4c-0.8,0.1-1.7,0.2-2.6,0.3
							c-0.4,0.1-0.9,0.1-1.3,0.1c-0.4,0-0.9,0-1.3,0.1c-0.9,0-1.8,0-2.7,0c-0.9-0.1-1.7-0.1-2.6-0.2c-0.8-0.1-1.6-0.2-2.4-0.3
							C7.3,20,6.6,19.9,6,19.7c-0.6-0.2-1.2-0.3-1.8-0.5c-0.5-0.2-1-0.3-1.3-0.5c-0.4-0.1-0.6-0.3-0.8-0.3c-0.2-0.1-0.3-0.1-0.3-0.1
							s0.1,0,0.3,0.1c0.2,0.1,0.5,0.2,0.8,0.3c0.4,0.1,0.8,0.3,1.3,0.4c0.5,0.2,1.1,0.3,1.8,0.5c0.7,0.1,1.4,0.3,2.1,0.4
							c0.8,0.1,1.6,0.2,2.4,0.3c0.8,0.1,1.7,0.1,2.6,0.2c0.9,0,1.8,0,2.6,0c0.4,0,0.9,0,1.3-0.1c0.4,0,0.9,0,1.3-0.1
							c0.9-0.1,1.7-0.1,2.5-0.3c0.8-0.1,1.6-0.2,2.4-0.4c0.7-0.2,1.5-0.3,2.1-0.4c0.7-0.1,1.2-0.3,1.8-0.4c0.5-0.1,1-0.2,1.4-0.3
							C29.2,18.4,29.2,18.3,29.2,18.3z"/>
					</g>
				</g>
			</g>
		</g>
		<g>
			<g>
				<g>
					<ellipse fill="#FFFFFF" cx="15.3" cy="18.7" rx="1.2" ry="1.1"/>
				</g>
			</g>
		</g>
	</g>
	<g>
		<g>
			<g>
				<path fill="#BFBFBF" d="M0.5,10.4c0,0,0.5,0.1,1.3,0.3c0.8,0.2,2,0.3,3.4,0.4c1.4,0.2,3,0.2,4.8,0.3c1.8,0,3.6,0.1,5.5,0
					c0.9,0,1.9,0,2.8-0.1c0.9-0.1,1.8-0.1,2.7-0.1c0.9-0.1,1.7-0.1,2.5-0.2c0.8-0.1,1.6-0.1,2.3-0.2c1.4-0.1,2.6-0.2,3.4-0.3
					c0.8-0.1,1.3-0.1,1.3-0.1s-0.5,0.1-1.3,0.3c-0.8,0.2-2,0.5-3.4,0.7c-1.4,0.2-3,0.5-4.8,0.7c-0.9,0.1-1.8,0.2-2.7,0.2
					c-0.9,0.1-1.9,0.1-2.8,0.1c-0.9,0-1.9,0-2.8,0c-0.9,0-1.9-0.1-2.7-0.1c-1.8-0.1-3.4-0.4-4.8-0.6c-1.4-0.2-2.6-0.6-3.3-0.8
					C0.9,10.6,0.5,10.4,0.5,10.4z"/>
			</g>
		</g>
	</g>
</g>
</svg>
