<?xml version="1.0" encoding="utf-8"?>
<!-- Generator: Adobe Illustrator 19.2.0, SVG Export Plug-In . SVG Version: 6.00 Build 0)  -->
<svg version="1.1" id="Layer_1" xmlns="http://www.w3.org/2000/svg" xmlns:xlink="http://www.w3.org/1999/xlink" x="0px" y="0px"
	 viewBox="0 0 31 31" enable-background="new 0 0 31 31" xml:space="preserve">
<g>
	<g>
		<g>
			<circle fill="#178FEB" cx="8.9" cy="13.4" r="7"/>
		</g>
	</g>
	<g>
		<g>
			<path fill="#178FEB" d="M9.2,24.4C7,24.5,4.9,24,2.8,22.9L0,28.2c2.8,1.5,5.7,2.3,8.7,2.3c0.3,0,0.5,0,0.8,0
				c2.9-0.1,5.7-1,8.4-2.5l-3-5.2C13.1,23.7,11.1,24.3,9.2,24.4z"/>
		</g>
	</g>
	<g>
		<g>
			<path fill="#178FEB" d="M20.3,14.4c0,0.3,0,0.6-0.1,0.9c1.7-0.6,2.9-2.1,2.9-3.9C23.2,9,21.3,7.1,18.9,7c-0.7,0-1.4,0.1-1.9,0.4
				C19.1,9,20.4,11.5,20.3,14.4z"/>
		</g>
	</g>
	<g>
		<g>
			<path fill="#178FEB" d="M19.9,17.1c-0.4,1.5-1.1,2.8-2.2,3.9c0.4,0,0.8,0,1.2,0c0.1,0,0.3,0,0.4,0c1.6-0.2,3.2-0.6,4.6-1.2
				l-1.5-3.4C21.7,16.7,20.8,16.9,19.9,17.1z"/>
		</g>
	</g>
	<g>
		<g>
			<polygon fill="#178FEB" points="31,3 28,3 28,0 25,0 25,3 22,3 22,6 25,6 25,9 28,9 28,6 31,6 			"/>
		</g>
	</g>
</g>
</svg>
