<?xml version="1.0" encoding="utf-8"?>
<!-- Generator: Adobe Illustrator 19.2.0, SVG Export Plug-In . SVG Version: 6.00 Build 0)  -->
<svg version="1.1" id="Layer_1" xmlns="http://www.w3.org/2000/svg" xmlns:xlink="http://www.w3.org/1999/xlink" x="0px" y="0px"
	 viewBox="0 0 31 31" enable-background="new 0 0 31 31" xml:space="preserve">
<g>
	<g>
		<path fill="#178FEB" d="M29.5,18.3v-5.4h-3c-0.3-1.1-0.7-2.1-1.2-3l2.2-2.2l-3.9-3.9l-2.2,2.2c-1-0.6-2-1-3.2-1.3v-3h-5.6v3
			c-1,0.3-2,0.7-2.9,1.2l-2-2L3.8,7.7l2,2c-0.6,1-1.1,2.1-1.3,3.2H1.5v5.4h2.9c0.3,1.2,0.7,2.2,1.3,3.2l-2,2l3.9,3.9l2-2
			c0.9,0.5,1.9,1,3,1.2v2.8h5.6v-2.9c1.1-0.3,2.2-0.7,3.1-1.3l2.2,2.2l3.9-3.9l-2.2-2.2c0.5-0.9,1-1.9,1.2-3H29.5z M15.5,21
			c-3,0-5.4-2.4-5.4-5.4s2.4-5.4,5.4-5.4s5.4,2.4,5.4,5.4S18.4,21,15.5,21z"/>
	</g>
</g>
</svg>
