<?xml version="1.0" encoding="utf-8"?>
<!-- Generator: Adobe Illustrator 19.2.0, SVG Export Plug-In . SVG Version: 6.00 Build 0)  -->
<svg version="1.1" id="Layer_1" xmlns="http://www.w3.org/2000/svg" xmlns:xlink="http://www.w3.org/1999/xlink" x="0px" y="0px"
	 viewBox="0 0 31 31" enable-background="new 0 0 31 31" xml:space="preserve">
<g>
	<g>
		<g>
			<polygon fill="#178FEB" points="24,27 7,27 7,5 24,5 24,9 27,9 27,5 27,2 24,2 4,2 4,30 27,30 27,23 24,23 			"/>
		</g>
	</g>
	<g>
		<g>
			<polygon fill="#178FEB" points="26,15 26,12 24,12 24,15 21,15 21,17 24,17 24,20 26,20 26,17 29,17 29,15 			"/>
		</g>
	</g>
	<g>
		<g>
			<rect x="11" y="18" fill="#178FEB" width="8" height="2"/>
		</g>
	</g>
	<g>
		<g>
			<rect x="11" y="21" fill="#178FEB" width="8" height="2"/>
		</g>
	</g>
	<g>
		<g>
			<path fill="#178FEB" d="M10.7,9H9v5h1v-2h0.7C12.8,12,12.8,9,10.7,9z M11,10.5c0,0.3-0.2,0.5-0.6,0.5H10v-1h0.4
				C10.8,10,11,10.2,11,10.5L11,10.5z"/>
		</g>
	</g>
	<g>
		<g>
			<path fill="#178FEB" d="M15,9h-2v5h2C17.9,14,17.8,9,15,9z M16,11.4c0,1-0.1,1.6-0.9,1.6H14v-3h1.1C15.9,10,16,10.3,16,11.4
				L16,11.4z"/>
		</g>
	</g>
	<g>
		<g>
			<polygon fill="#178FEB" points="21,10 21,9 18,9 18,14 19,14 19,12 21,12 21,11 19,11 19,10 			"/>
		</g>
	</g>
</g>
</svg>
