<?xml version="1.0" encoding="utf-8"?>
<!DOCTYPE svg PUBLIC "-//W3C//DTD SVG 1.1//EN" "http://www.w3.org/Graphics/SVG/1.1/DTD/svg11.dtd">
<svg version="1.1" xmlns="http://www.w3.org/2000/svg" xmlns:xlink="http://www.w3.org/1999/xlink" width="448" height="448" viewBox="0 0 448 448">
<path d="M340.5 356.5v-162h-33.75q5 15.75 5 32.75 0 31.5-16 58.125t-43.5 42.125-60 15.5q-49.25 0-84.25-33.875t-35-81.875q0-17 5-32.75h-35.25v162q0 6.5 4.375 10.875t10.875 4.375h267.25q6.25 0 10.75-4.375t4.5-10.875zM269.5 223.25q0-31-22.625-52.875t-54.625-21.875q-31.75 0-54.375 21.875t-22.625 52.875 22.625 52.875 54.375 21.875q32 0 54.625-21.875t22.625-52.875zM340.5 133.25v-41.25q0-7-5-12.125t-12.25-5.125h-43.5q-7.25 0-12.25 5.125t-5 12.125v41.25q0 7.25 5 12.25t12.25 5h43.5q7.25 0 12.25-5t5-12.25zM384 81.25v285.5q0 20.25-14.5 34.75t-34.75 14.5h-285.5q-20.25 0-34.75-14.5t-14.5-34.75v-285.5q0-20.25 14.5-34.75t34.75-14.5h285.5q20.25 0 34.75 14.5t14.5 34.75z"></path>
</svg>
