<?xml version="1.0" encoding="utf-8"?>
<!-- Generator: Adobe Illustrator 19.2.0, SVG Export Plug-In . SVG Version: 6.00 Build 0)  -->
<svg version="1.1" id="Layer_1" xmlns="http://www.w3.org/2000/svg" xmlns:xlink="http://www.w3.org/1999/xlink" x="0px" y="0px"
	 viewBox="0 0 31 31" enable-background="new 0 0 31 31" xml:space="preserve">
<g>
	<path fill="#178FEB" d="M15.5,31c-4.1,0-8-1.6-11-4.5S0,19.6,0,15.5s1.6-8,4.5-11S11.4,0,15.5,0s8,1.6,11,4.5s4.5,6.8,4.5,11
		c0,1.1-0.9,2-2,2s-2-0.9-2-2c0-3.1-1.2-6-3.4-8.1C21.5,5.2,18.6,4,15.5,4s-6,1.2-8.1,3.4C5.2,9.5,4,12.4,4,15.5s1.2,6,3.4,8.1
		c2.2,2.2,5.1,3.4,8.1,3.4H16v4H15.5z"/>
</g>
</svg>
