<?xml version="1.0" encoding="utf-8"?>
<!-- Generator: Adobe Illustrator 19.2.0, SVG Export Plug-In . SVG Version: 6.00 Build 0)  -->
<svg version="1.1" id="Layer_1" xmlns="http://www.w3.org/2000/svg" xmlns:xlink="http://www.w3.org/1999/xlink" x="0px" y="0px"
	 viewBox="0 0 31 31" enable-background="new 0 0 31 31" xml:space="preserve">
<g>
	<g>
		<g>
			<circle fill="#178FEB" cx="15.5" cy="9" r="3.5"/>
		</g>
	</g>
	<g>
		<g>
			<circle fill="#178FEB" cx="24" cy="9.5" r="3"/>
		</g>
	</g>
	<g>
		<g>
			<circle fill="#178FEB" cx="7" cy="9.5" r="3"/>
		</g>
	</g>
	<g>
		<g>
			<path fill="#178FEB" d="M24,13.5c-1.6,0-3.1,0.7-4.3,2c-1.2-1.3-2.6-2-4.2-2c-1.6,0-3,0.7-4.2,2c-1.2-1.3-2.7-2-4.3-2
				c-6,0-6,6.8-6,9h2c0-6.2,2-7,4-7c1.1,0,2.2,0.6,3.1,1.7c-0.8,1.4-1.4,3.1-1.6,5c-0.1,0.8,0.1,1.7,0.7,2.3s1.4,1,2.2,1
				s1.7-0.4,2.2-1s0.8-1.5,0.7-2.3c-0.3-1.9-0.9-3.6-1.7-5c0.9-1,1.9-1.6,3-1.6s2.1,0.6,3,1.6c-0.8,1.4-1.5,3.1-1.7,5
				c-0.1,0.8,0.1,1.7,0.7,2.3s1.4,1,2.2,1s1.7-0.4,2.2-1s0.8-1.5,0.7-2.3c-0.3-1.9-0.8-3.6-1.6-5c0.9-1.1,2-1.7,3.1-1.7
				c2,0,4,0.8,4,7h2C30,20.3,30,13.5,24,13.5z M12.1,23.2c-0.4,0.4-1.1,0.4-1.4,0c-0.2-0.2-0.3-0.5-0.2-0.7c0.2-1.2,0.5-2.3,0.9-3.3
				c0.5,1,0.8,2.1,1,3.3C12.3,22.7,12.2,23,12.1,23.2z M20.4,23.2c-0.4,0.4-1.1,0.4-1.4,0c-0.2-0.2-0.3-0.5-0.2-0.7
				c0.2-1.2,0.5-2.3,1-3.3c0.4,1,0.7,2.1,0.9,3.3C20.6,22.7,20.5,23,20.4,23.2z"/>
		</g>
	</g>
</g>
</svg>
