<?xml version="1.0" encoding="utf-8"?>
<!-- Generator: Adobe Illustrator 19.2.0, SVG Export Plug-In . SVG Version: 6.00 Build 0)  -->
<svg version="1.1" id="Layer_1" xmlns="http://www.w3.org/2000/svg" xmlns:xlink="http://www.w3.org/1999/xlink" x="0px" y="0px"
	 viewBox="0 0 31 31" enable-background="new 0 0 31 31" xml:space="preserve">
<g>
	<g>
		<path fill="#178FEB" d="M15.5,0C6.9,0,0,6.9,0,15.5C0,24.1,6.9,31,15.5,31S31,24.1,31,15.5C31,6.9,24.1,0,15.5,0z M15.5,28
			C8.6,28,3,22.4,3,15.5C3,8.6,8.6,3,15.5,3c2.7,0,5.3,0.9,7.3,2.4l-2.7-0.7c-0.1,0.9-1.2,0.8-1.8,0.1c-0.3,0-0.7,0.1-1.1,0.2
			c-1.2,0.5-2.5,1.7-2,2.2c0.9-0.6,1.8-0.4,1.2,0.8c-1,1.5-1.8-0.6-2.8,0c0.5,0.4-1.3,1-1.8,1.1c-1.1-0.2,0.9,0.8,0.2,1.1
			c-2.2,0.4,1.1,1.5,1.1-0.2c2-1.1,2.1,2.4,4.2,1.9c-0.6-0.8,0.1-1.8,1.2-2c2,0.5-1.3,1.5,0.1,1.8c-0.2,0.8-2,1-2.7,1.7
			c-2.2-0.1-3-3.2-5.4-1.8c-1.6,0.3-2.5,2.6-2.1,4c0.7,2.1,2.3,2.3,4.2,2.3c1.7,0.9,1.3,4.1,1.9,5.9c1,0.9,3.8,3.1,3.8,0.3
			c-0.3-1.9,2.1-5.5,3-7.1c1.4-2.3-1.4,0.2-2.1-0.9c-0.4-2.5,2-0.3,3.1-1c1,0.6,2.7-0.5,2.9,1.3c0.2,1.1,0.5,0.9,0.9,0.4l1.7-2
			c0,0.2,0,0.3,0,0.5C28,22.4,22.4,28,15.5,28z"/>
	</g>
</g>
</svg>
