<?xml version="1.0" encoding="utf-8"?>
<!-- Generator: Adobe Illustrator 19.2.0, SVG Export Plug-In . SVG Version: 6.00 Build 0)  -->
<svg version="1.1" id="Layer_1" xmlns="http://www.w3.org/2000/svg" xmlns:xlink="http://www.w3.org/1999/xlink" x="0px" y="0px"
	 viewBox="0 0 31 31" enable-background="new 0 0 31 31" xml:space="preserve">
<path fill="#178FEB" d="M26,3H5C3.9,3,3,3.9,3,5v21c0,1.1,0.9,2,2,2h21c1.1,0,2-0.9,2-2V5C28,3.9,27.1,3,26,3z M11.3,14
	c0.1-0.2,0.2-0.4,0.3-0.6c0,0,0-0.1,0-0.1c0.1-0.2,0.2-0.4,0.3-0.5c0,0,0,0,0-0.1c0.2-0.3,0.5-0.6,0.8-0.8c0.1,0,0.1-0.1,0.1-0.1
	c0.1-0.1,0.2-0.1,0.3-0.2c0.1-0.1,0.2-0.1,0.4-0.2c0.1,0,0.2-0.1,0.3-0.1c0.2-0.1,0.3-0.1,0.5-0.2c0.1,0,0.2,0,0.3-0.1
	c0.3,0,0.5-0.1,0.8-0.1s0.6,0,0.8,0.1c0.1,0,0.2,0,0.3,0.1c0.2,0,0.3,0.1,0.5,0.2c0.1,0,0.2,0.1,0.3,0.1c0.1,0.1,0.3,0.1,0.4,0.2
	c0.1,0.1,0.2,0.1,0.3,0.2c0.1,0,0.1,0.1,0.1,0.1c0.3,0.2,0.6,0.5,0.8,0.8c0,0,0,0,0,0.1c0.1,0.2,0.2,0.3,0.3,0.5c0,0,0,0.1,0,0.1
	c0.1,0.2,0.2,0.4,0.3,0.6c0.2,0.5,0.3,1,0.3,1.5c0,2.5-2,4.5-4.5,4.5S11,18,11,15.5C11,15,11.1,14.5,11.3,14z M25,25H6V14h2.2
	C8.1,14.5,8,15,8,15.5c0,4.1,3.4,7.5,7.5,7.5s7.5-3.4,7.5-7.5c0-0.5-0.1-1-0.2-1.5H25V25z M23,10c-1.1,0-2-0.9-2-2c0-1.1,0.9-2,2-2
	s2,0.9,2,2C25,9.1,24.1,10,23,10z"/>
</svg>
