<?xml version="1.0" encoding="utf-8"?>
<!DOCTYPE svg PUBLIC "-//W3C//DTD SVG 1.1//EN" "http://www.w3.org/Graphics/SVG/1.1/DTD/svg11.dtd">
<svg version="1.1" xmlns="http://www.w3.org/2000/svg" xmlns:xlink="http://www.w3.org/1999/xlink" width="1024" height="1024" viewBox="0 0 1024 1024">
<path d="M745.9 749.4c40.5 0 73.5-32.9 73.5-73.5v-466.3c0-40.5-32.9-73.5-73.5-73.5h-672.4c-40.5 0-73.5 32.9-73.5 73.5v466.3c0 40.5 32.9 73.5 73.5 73.5h672.4zM73.5 711.1c-19.3 0-35.1-15.8-35.1-35.1v-466.4c0-19.3 15.8-35.1 35.1-35.1h672.4c19.4 0 35.1 15.8 35.1 35.1v466.3c0 19.3-15.8 35.1-35.1 35.1l-672.4 0.1z"></path>
<path d="M524 481.3l-114.3-38.5-99.9 88.8-157.2 117.4h583.5v-136.6c0 0-71.5-48.9-119.9-198.7-23.2-71.9-92.2 167.6-92.2 167.6z"></path>
<path d="M284.8 313.7c0 47.11-38.19 85.3-85.3 85.3s-85.3-38.19-85.3-85.3c0-47.11 38.19-85.3 85.3-85.3s85.3 38.19 85.3 85.3z"></path>
<path d="M814.1 230.8c19.3 0 35.1 15.8 35.1 35.1v466.3c0 19.3-15.8 35.1-35.1 35.1h-672.4c-19.3 0-35.1-15.8-35.1-35.1h-38.4c0 40.5 33 73.5 73.5 73.5h672.4c40.5 0 73.4-32.9 73.4-73.5v-466.2c0-40.6-33-73.5-73.4-73.5v38.3z"></path>
<path d="M950.6 346.6c19.3 0 35.1 15.8 35.1 35.1v466.3c0 19.3-15.8 35.1-35.1 35.1h-672.5c-19.3 0-35.1-15.8-35.1-35.1h-38.4c0 40.5 33 73.5 73.5 73.5h672.4c40.5 0 73.4-32.9 73.4-73.5v-466.2c0-40.6-33-73.5-73.4-73.5v38.3z"></path>
<path d="M882.3 287.2c19.3 0 35.1 15.8 35.1 35.1v466.3c0 19.3-15.8 35.1-35.1 35.1h-672.4c-19.3 0-35.1-15.8-35.1-35.1h-38.4c0 40.5 33 73.5 73.5 73.5h672.4c40.5 0 73.4-32.9 73.4-73.5v-466.2c0-40.6-33-73.5-73.4-73.5v38.3z"></path>
</svg>
