<?xml version="1.0" encoding="utf-8"?>
<!DOCTYPE svg PUBLIC "-//W3C//DTD SVG 1.1//EN" "http://www.w3.org/Graphics/SVG/1.1/DTD/svg11.dtd">
<svg version="1.1" xmlns="http://www.w3.org/2000/svg" xmlns:xlink="http://www.w3.org/1999/xlink" width="1024" height="1024" viewBox="0 0 1024 1024">
<path d="M391.4 422.6h-163.6v-160l-227.8 247.6 227.8 247.6v-173.8h163.6z"></path>
<path d="M987.4 341.8c-16.6-22.8-39-48.8-63.8-74.6-1.4-2.2-2.8-4.4-4.4-6.6-2.4-3.4-5-7-7.8-10.8-19.4-26.4-46.2-57.2-75.8-86.6-29.6-29.6-60.4-56.4-86.6-75.8-44.8-32.8-66.6-36.6-79-36.6h-320c-38.4 0-69.6 31.2-69.6 69.6v692c0 38.4 31.2 69.6 69.6 69.6h6.4v22.4c0 38.4 31.2 69.6 69.6 69.6h528.6c38.4 0 69.6-31.2 69.6-69.6v-483.4c-0.2-12.6-4-34.2-36.8-79.2zM729.6 142.8c19.2 15.2 41.8 35 66.6 59.8 26.6 26.6 47.6 50.8 63.2 70.8h-133.8v-130.6h4zM358.2 826h-8.4c-7.6 0-14-6.4-14-14v-692c0-7.6 6.4-14 14-14 0 0 320 0 320 0v194.8c0 15.4 12.4 27.8 27.8 27.8h194.8v483.2c0 7.6-6.4 14-14 14h-520.2zM968.4 904.2c0 7.6-6.4 14-14 14h-528.6c-7.6 0-14-6.4-14-14v-22.4h466.6c38.4 0 69.6-31.2 69.6-69.6v-391.2h20.4v483.2z"></path>
<path d="M434.2 204.8h134.4v420.8h235.4v121.6h-369.8v-542.4z"></path>
</svg>
