<?xml version="1.0" encoding="utf-8"?>
<!DOCTYPE svg PUBLIC "-//W3C//DTD SVG 1.1//EN" "http://www.w3.org/Graphics/SVG/1.1/DTD/svg11.dtd">
<svg version="1.1" xmlns="http://www.w3.org/2000/svg" xmlns:xlink="http://www.w3.org/1999/xlink" width="448" height="448" viewBox="0 0 448 448">
<path d="M352 232v80q0 29.75-21.125 50.875t-50.875 21.125h-208q-29.75 0-50.875-21.125t-21.125-50.875v-208q0-29.75 21.125-50.875t50.875-21.125h176q3.5 0 5.75 2.25t2.25 5.75v16q0 3.5-2.25 5.75t-5.75 2.25h-176q-16.5 0-28.25 11.75t-11.75 28.25v208q0 16.5 11.75 28.25t28.25 11.75h208q16.5 0 28.25-11.75t11.75-28.25v-80q0-3.5 2.25-5.75t5.75-2.25h16q3.5 0 5.75 2.25t2.25 5.75zM448 16v128q0 6.5-4.75 11.25t-11.25 4.75-11.25-4.75l-44-44-163 163q-2.5 2.5-5.75 2.5t-5.75-2.5l-28.5-28.5q-2.5-2.5-2.5-5.75t2.5-5.75l163-163-44-44q-4.75-4.75-4.75-11.25t4.75-11.25 11.25-4.75h128q6.5 0 11.25 4.75t4.75 11.25z"></path>
</svg>
