<?xml version="1.0" encoding="utf-8"?>
<!DOCTYPE svg PUBLIC "-//W3C//DTD SVG 1.1//EN" "http://www.w3.org/Graphics/SVG/1.1/DTD/svg11.dtd">
<svg version="1.1" xmlns="http://www.w3.org/2000/svg" xmlns:xlink="http://www.w3.org/1999/xlink" width="480" height="448" viewBox="0 0 480 448">
<path d="M160 144q0 20-14 34t-34 14-34-14-14-34 14-34 34-14 34 14 14 34zM416 240v112h-352v-48l80-80 40 40 128-128zM440 64h-400q-3.25 0-5.625 2.375t-2.375 5.625v304q0 3.25 2.375 5.625t5.625 2.375h400q3.25 0 5.625-2.375t2.375-5.625v-304q0-3.25-2.375-5.625t-5.625-2.375zM480 72v304q0 16.5-11.75 28.25t-28.25 11.75h-400q-16.5 0-28.25-11.75t-11.75-28.25v-304q0-16.5 11.75-28.25t28.25-11.75h400q16.5 0 28.25 11.75t11.75 28.25z"></path>
</svg>
