<?xml version="1.0" encoding="utf-8"?>

<!DOCTYPE svg PUBLIC "-//W3C//DTD SVG 1.1//EN" "http://www.w3.org/Graphics/SVG/1.1/DTD/svg11.dtd">
<svg version="1.1" xmlns="http://www.w3.org/2000/svg" xmlns:xlink="http://www.w3.org/1999/xlink" width="256" height="448" viewBox="0 0 256 448">
<g id="icomoon-ignore">
</g>
<path d="M72 368q0-10-7-17t-17-7-17 7-7 17 7 17 17 7 17-7 7-17zM72 80q0-10-7-17t-17-7-17 7-7 17 7 17 17 7 17-7 7-17zM232 112q0-10-7-17t-17-7-17 7-7 17 7 17 17 7 17-7 7-17zM256 112q0 13-6.5 24.125t-17.5 17.375q-0.5 71.75-56.5 103.5-17 9.5-50.75 20.25-32 10-42.375 17.75t-10.375 25v6.5q11 6.25 17.5 17.375t6.5 24.125q0 20-14 34t-34 14-34-14-14-34q0-13 6.5-24.125t17.5-17.375v-205q-11-6.25-17.5-17.375t-6.5-24.125q0-20 14-34t34-14 34 14 14 34q0 13-6.5 24.125t-17.5 17.375v124.25q13.5-6.5 38.5-14.25 13.75-4.25 21.875-7.375t17.625-7.75 14.75-9.875 10.125-12.75 7-17.375 2.125-22.875q-11-6.25-17.5-17.375t-6.5-24.125q0-20 14-34t34-14 34 14 14 34z"></path>
</svg>
