<?xml version="1.0" encoding="utf-8"?>
<!-- Generator: Adobe Illustrator 20.1.0, SVG Export Plug-In . SVG Version: 6.00 Build 0)  -->
<svg version="1.1" id="Layer_1" xmlns="http://www.w3.org/2000/svg" xmlns:xlink="http://www.w3.org/1999/xlink" x="0px" y="0px"
	 viewBox="0 0 31 31" style="enable-background:new 0 0 31 31;" xml:space="preserve">
<path d="M24.6,18.1c-1.7,0-3.3,0.7-4.4,1.8l-7.2-3.6c0-0.3,0.1-0.5,0.1-0.8c0-0.3,0-0.5-0.1-0.8l7.2-3.6c1.2,1.1,2.7,1.8,4.5,1.8
	c3.6,0,6.5-2.9,6.5-6.4C31,2.9,28.1,0,24.6,0s-6.5,2.9-6.5,6.4c0,0.3,0,0.5,0,0.8l-7.2,3.6C9.7,9.7,8.2,9.1,6.5,9.1
	C2.9,9.1,0,11.9,0,15.5C0,19.1,2.9,22,6.5,22c1.7,0,3.3-0.7,4.4-1.8l7.2,3.6c0,0.3-0.1,0.5-0.1,0.8c0,3.6,2.9,6.4,6.5,6.4
	s6.5-2.9,6.5-6.4C31,21,28.1,18.1,24.6,18.1z"/>
</svg>
