<?xml version="1.0" encoding="utf-8"?>
<!-- Generator: Adobe Illustrator 20.1.0, SVG Export Plug-In . SVG Version: 6.00 Build 0)  -->
<svg version="1.1" id="Layer_1" xmlns="http://www.w3.org/2000/svg" xmlns:xlink="http://www.w3.org/1999/xlink" x="0px" y="0px"
	 viewBox="0 0 31 31" style="enable-background:new 0 0 31 31;" xml:space="preserve">
<g>
	<g>
		<path d="M11.2,24.2c-1.4,0-2.8,0-4.3,0c-1.4,0-2.2-0.9-2.2-2.3c0-2,0-4,0-6c0-0.3-0.1-0.5-0.4-0.5c-0.5,0-1.1,0-1.6,0
			c-0.6,0-1.1-0.2-1.4-0.8c-0.3-0.6-0.2-1.1,0.2-1.7c1.1-1.4,2.2-2.9,3.2-4.3c0.3-0.4,0.6-0.9,1-1.3c0.7-0.9,1.8-0.9,2.4,0
			c1.4,1.8,2.8,3.7,4.1,5.5c0.1,0.1,0.2,0.3,0.3,0.4c0.6,1.2-0.4,2.2-1.3,2.2c-0.6,0-1.2,0-1.8,0c-0.3,0-0.4,0.1-0.4,0.4
			c0,1.2,0,2.4,0,3.5c0,0.3,0.1,0.4,0.4,0.4c1.9,0,3.8,0,5.7,0c0.7,0,1.3,0.1,1.9,0.6c0.6,0.6,0.9,1.5,0.6,2.3
			c-0.3,0.8-1.1,1.4-1.9,1.4C14.1,24.2,12.6,24.2,11.2,24.2C11.2,24.2,11.2,24.2,11.2,24.2z"/>
		<path d="M19.8,6.8c1.4,0,2.8,0,4.2,0c1.4,0,2.4,1.1,2.3,2.3c-0.1,2,0,3.9,0,5.9c0,0.5,0,0.5,0.5,0.5c0.6,0,1.2,0,1.7,0
			c1.1,0,1.7,1.1,1.3,2.1c-0.2,0.4-0.5,0.7-0.7,1.1c-1.2,1.6-2.4,3.2-3.6,4.8c-0.8,1.1-1.8,1.1-2.7,0c-1.4-1.8-2.7-3.6-4.1-5.5
			c-0.7-0.9-0.4-2,0.6-2.4c0.2-0.1,0.4-0.1,0.6-0.1c0.6,0,1.1,0,1.7,0c0.2,0,0.4-0.1,0.4-0.3c0-1.2,0-2.4,0-3.7
			c0-0.3-0.2-0.3-0.4-0.3c-2,0-4.1,0-6.1,0c-0.9,0-1.8-0.6-2.1-1.4c-0.5-1.5,0.5-2.9,2.1-2.9C17,6.8,18.4,6.8,19.8,6.8z"/>
	</g>
</g>
</svg>
