<?xml version="1.0" encoding="utf-8"?>
<!-- Generator: Adobe Illustrator 19.2.0, SVG Export Plug-In . SVG Version: 6.00 Build 0)  -->
<svg version="1.1" id="Layer_1" xmlns="http://www.w3.org/2000/svg" xmlns:xlink="http://www.w3.org/1999/xlink" x="0px" y="0px"
	 viewBox="0 0 31 31" style="enable-background:new 0 0 31 31;" xml:space="preserve">
<path d="M25.3,25.2L20,20.4v2.3c-2.8,0-2.4,0-8.4,0.5c3.8-4.7,8.8-5.4,11-5.4V20l5.3-4.8l-5.3-4.8v2.4c-3.5,0-8.5,1.2-12.8,5
	c2-6.9,5.8-8.8,7.5-9.3v2.1l5.3-4.8L17.4,1v2.4C15,3.7,3.7,7.9,3.7,29.2l0,0.1c6.8-0.9,13.2-1.4,16.3-1.3V30L25.3,25.2z"/>
</svg>
