<?xml version="1.0" encoding="utf-8"?>
<svg id="Layer_1" x="0px" y="0px" viewBox="0 0 31 31" xmlns="http://www.w3.org/2000/svg">
  <defs>
    <symbol id="symbol-0" viewBox="0 0 100 100"/>
  </defs>
  <circle fill="#178FEB" cx="15.5" cy="15.5" r="4.5"/>
  <path fill="#178FEB" d="M 15.5 4 C 5 4 0 15.5 0 15.5 C 0 15.5 6 27 15.5 27 C 25 27 31 15.5 31 15.5 C 31 15.5 26 4 15.5 4 Z M 15.5 24 C 10.8 24 7 20.2 7 15.5 C 7 10.8 10.8 7 15.5 7 C 20.2 7 24 10.8 24 15.5 C 24 20.2 20.2 24 15.5 24 Z"/>

  <polygon fill="#178FEB" points="19.1,15.5 29.2,5.3 29.9,4.6 29.2,3.9 27.1,1.8 26.4,1.1 25.7,1.8 15.5,11.9 11.9,15.5 1.8,25.7 1.1,26.4 1.8,27.1 3.9,29.2 4.6,29.9 5.3,29.2 15.5,19.1 "/>
</svg>