<svg xmlns="http://www.w3.org/2000/svg" viewBox="0 0 28 32">
    <title>create-new-version</title>
    <path id="rect" d="M 0,0 V 1.5 32 H 28 V 0 Z M 3,3 H 25 V 29 H 3 Z" />
    <path id="Shape"
          d="M18,9.85l-2,1.37-2,1.36-.14-1.17A4.59,4.59,0,0,0,9.48,15.8a4.22,4.22,0,0,0,1.36,3.07L9.06,20.44A6.38,6.38,0,0,1,7,15.8a7,7,0,0,1,6.52-6.64L13.38,8l2.31.93Z"/>
    <path id="Shape-2" data-name="Shape"
          d="M10,22.15l2-1.37,2-1.36.14,1.17a4.59,4.59,0,0,0,4.31-4.39,4.22,4.22,0,0,0-1.36-3.07l1.78-1.57A6.38,6.38,0,0,1,21,16.2a6.93,6.93,0,0,1-6.52,6.63L14.62,24l-2.31-.93Z"/>
</svg>