<svg xmlns="http://www.w3.org/2000/svg" viewBox="0 0 28 32">
    <title>file-numbers</title>
    <path id="Rectangle-4"
          d="M 3,0 C 1.3549904,0 0,1.3549904 0,3 v 26 c 0,1.64501 1.3549904,3 3,3 h 22 c 1.64501,0 3,-1.35499 3,-3 V 9.3710938 9.3691406 c 4.65e-4,-0.82065 -0.335655,-1.6075437 -0.929688,-2.1738281 L 20.378906,0.82617188 v -0.001953 C 19.82111,0.29431207 19.079875,-4.7935344e-4 18.310547,0 Z m 0,2 h 15.310547 c 0.257105,-3.215e-4 0.505005,0.09831 0.691406,0.2753906 l 6.6875,6.3691406 C 25.888048,8.8338494 26.000326,9.0947664 26,9.3691406 V 29 c 0,0.564129 -0.435871,1 -1,1 H 3 C 2.4358706,30 2,29.564129 2,29 V 3 C 2,2.4358706 2.4358706,2 3,2 Z" />
  <path
     id="Rectangle"
     d="m 23.860699,6.8346795 -3.120465,-0.033898 0.0339,-2.9211135 -2.033898,-1.8933065 v 6.81442 h 7.097657 z" />
    <rect id="Rectangle-5" x="5" y="21.33" width="4" height="5.82"/>
    <rect id="Rectangle-5-Copy" x="10" y="18.42" width="4" height="8.73"/>
    <rect id="Rectangle-5-Copy-2" x="15" y="13.58" width="4" height="13.58"/>
    <rect id="Rectangle-5-Copy-3" x="20" y="21.33" width="4" height="5.82"/>
</svg>