<svg xmlns="http://www.w3.org/2000/svg" preserveAspectRatio="xMidYMid" width="34" height="34" viewBox="0 0 34 34"><path d="M17.29 33.152c-2.926 0-5.675-.748-8.066-2.06l-9.238 2.937 3.01-8.892C1.48 22.64.604 19.712.604 16.58.603 7.43 8.073.01 17.29.01c9.215 0 16.686 7.42 16.686 16.57 0 9.153-7.47 16.572-16.687 16.572zm0-30.366c-7.66 0-13.892 6.19-13.892 13.795 0 3.02.983 5.815 2.646 8.09L4.31 29.792l5.337-1.697c2.193 1.44 4.82 2.28 7.642 2.28 7.66 0 13.89-6.187 13.89-13.794 0-7.605-6.23-13.794-13.89-13.794zm5.345 21.99c-.783.04-.805.607-5.07-1.248-4.267-1.855-6.834-6.366-7.036-6.657-.204-.29-1.654-2.357-1.575-4.438.078-2.08 1.217-3.063 1.624-3.472.405-.41.87-.498 1.154-.487.284.01.567.057.816.066.248.008.608-.12.93.74.324.86 1.097 2.973 1.196 3.19.1.214.16.464.008.74-.153.278-.23.45-.453.69-.22.24-.467.535-.666.718-.22.202-.452.423-.22.855.233.432 1.036 1.85 2.26 3.018 1.572 1.502 2.928 2 3.346 2.227.418.228.667.203.927-.07.26-.274 1.11-1.196 1.41-1.608.3-.414.582-.333.967-.178.385.156 2.44 1.257 2.86 1.485.416.226.696.344.796.523.1.18.068 1.028-.324 2.002-.392.974-2.168 1.863-2.95 1.904z" id="path-1" fill="#000000" fill-rule="evenodd"/></svg>
