<svg xmlns="http://www.w3.org/2000/svg" viewBox="0 0 28 34"><title>remove</title><g id="Layer_2" data-name="Layer 2"><g id="Layer_1-2" data-name="Layer 1"><g id="IKONIT"><g id="poista"><path id="Shape" d="M12.79,9.22H9.11l.35,18.91h3.68Zm8.54,21.07v.05a.21.21,0,0,1-.21.2H6.89a.21.21,0,0,1-.22-.2L6,9.22H2.27L3,30.37A3.79,3.79,0,0,0,6.89,34H21.12A3.79,3.79,0,0,0,25,30.37l.72-21.15H22.05ZM15.21,9.22l-.35,18.91h3.68L18.9,9.22Zm6.24-5.57C20.39,1.31,17.77,0,14,0S7.61,1.31,6.55,3.65H0V7.11H28V3.65Z"/></g></g></g></g></svg>