<svg id="Layer_1" data-name="Layer 1" xmlns="http://www.w3.org/2000/svg" viewBox="0 0 100 100"><title>Headphones</title><path d="M535,363.16a50.17,50.17,0,0,0-43,75.78l.91,1.53h3.78l2,20a3,3,0,0,0,3.29,2.69l16.22-1.65a3,3,0,0,0,2.68-3.3l-4.75-46.92a3,3,0,0,0-3.29-2.69l-16.21,1.65a3,3,0,0,0-2.68,3.3l2,19.57a43.85,43.85,0,0,1,2.54-44,51.23,51.23,0,0,1,73,0,43.85,43.85,0,0,1,2.45,44.17l2-19.75a3,3,0,0,0-2.68-3.3L557,408.59a3,3,0,0,0-3.29,2.69L549,458.2a3,3,0,0,0,2.68,3.3l16.21,1.65a3,3,0,0,0,3.29-2.69l2-20h3.86l.91-1.53a50.17,50.17,0,0,0-43-75.78Z" transform="translate(-485 -363.16)"/></svg>