<?xml version="1.0" encoding="UTF-8"?>
<svg width="100px" height="100px" viewBox="0 0 100 100" version="1.1" xmlns="http://www.w3.org/2000/svg" xmlns:xlink="http://www.w3.org/1999/xlink">
    <!-- Generator: Sketch 58 (84663) - https://sketch.com -->
    <title>Settings</title>
    <desc>Created with Sketch.</desc>
    <g id="Settings" stroke="none" stroke-width="1" fill="none" fill-rule="evenodd">
        <g id="Group-4" transform="translate(11.000000, 7.000000)" fill="#000000">
            <path d="M74.102,39.301 L66.5004,39.301 C64.8988,33.6994 59.8012,29.6018 53.8014,29.6018 C47.8016,29.6018 42.6994,33.801 41.0004,39.301 L3.8984,39.301 C1.8984,39.301 0.1992,40.9026 0.1992,43.0002 C0.1992,45.0002 1.8008,46.6994 3.8984,46.6994 L41.0004,46.6994 C42.602,52.301 47.6996,56.3986 53.6994,56.3986 C59.6992,56.3986 64.8014,52.297 66.3984,46.6994 L74,46.6994 C76,46.6994 77.6992,45.0978 77.6992,43.0002 C77.80076,41.0002 76.1992,39.301 74.1015,39.301 L74.102,39.301 Z M53.801,49.0002 C50.6018,49.0002 47.801,46.3986 47.801,43.0002 C47.801,39.6018 50.4026,37.0002 53.801,37.0002 C57.1994,37.0002 59.801,39.6018 59.801,43.0002 C59.801,46.3986 57.0002,49.0002 53.801,49.0002 Z" id="Fill-1"></path>
            <path d="M3.898,17.398 L11.7964,17.398 C13.398,22.9996 18.4956,27.0972 24.4954,27.0972 C30.4952,27.0972 35.5974,22.9956 37.1944,17.398 L74.0924,17.398 C76.0924,17.398 77.7916,15.7964 77.7916,13.6988 C77.7916,11.5972 76.19,9.9996 74.0924,9.9996 L37.1974,9.9996 C35.5958,4.398 30.4982,0.3004 24.4984,0.3004 C18.4986,0.3004 13.3964,4.402 11.7994,9.9996 L3.901,9.9996 C1.901,9.9996 0.201792856,11.6012 0.201792856,13.6988 C0.19789,15.8004 1.7995,17.398 3.8971,17.398 L3.898,17.398 Z M24.5,7.6988 C27.6992,7.6988 30.5,10.3004 30.5,13.6988 C30.5,17.0972 27.8984,19.6988 24.5,19.6988 C21.1016,19.6988 18.5,16.898 18.5,13.6988 C18.5,10.4996 21.3008,7.6988 24.5,7.6988 Z" id="Fill-2"></path>
            <path d="M74.102,68.602 L37.2,68.602 C35.5984,63.0004 30.5008,58.9028 24.501,58.9028 C18.5012,58.9028 13.399,63.0044 11.802,68.602 L3.9036,68.602 C1.9036,68.602 0.2044,70.2036 0.2044,72.3012 C0.2044,74.4028 1.806,76.0004 3.9036,76.0004 L11.802,76.0004 C13.4036,81.602 18.5012,85.699597 24.501,85.699597 C30.5008,85.699597 35.603,81.598 37.2,76.0004 L74.098,76.0004 C76.098,76.0004 77.7972071,74.3988 77.7972071,72.3012 C77.8011,70.1996 76.1995,68.602 74.1019,68.602 L74.102,68.602 Z M24.5,78.3012 C21.3008,78.3012 18.5,75.6996 18.5,72.3012 C18.5,68.9028 21.1016,66.3012 24.5,66.3012 C27.8984,66.3012 30.5,68.9028 30.5,72.3012 C30.5,75.6996 27.6992,78.3012 24.5,78.3012 Z" id="Fill-3"></path>
        </g>
    </g>
</svg>