<?xml version="1.0" standalone="no"?> 
<!DOCTYPE svg PUBLIC "-//W3C//DTD SVG 1.1//EN" "http://www.w3.org/Graphics/SVG/1.1/DTD/svg11.dtd" >
<svg xmlns="http://www.w3.org/2000/svg">
<defs>
  <font id="hy-icons" horiz-adv-x="64">
    <font-face font-family="hy-icons"
      units-per-em="64" ascent="53"
      descent="11" />
    <missing-glyph horiz-adv-x="0" />
    <glyph glyph-name="hy-Icons_add-to-todo-list"
      unicode="&#xE001;"
      horiz-adv-x="64" d=" M48 32H52V16H48V32z M42 26H58V22H42V26z M52 -7L6 -7L6 49L52 49L52 43L12 43L12 -1L46 -1L46 7L52 7z M20 18H36V14H20V18z M20 12H36V8H20V12z M20 34H36V30H20V34z M20 28H36V24H20V28z" />
    <glyph glyph-name="hy-Icons_arrow-up"
      unicode="&#xE002;"
      horiz-adv-x="64" d=" M29.1 38.3H35.1V-1H29.1V38.3z M48.4 14.4L32.1 33.8L15.6 14.6L11 18.4L32.1 43L53 18.1z" />
    <glyph glyph-name="hy-Icons_arrow"
      unicode="&#xE003;"
      horiz-adv-x="64" d=" M21.3 0L17.5 4.6L37.2 20.9L17.7 37.4L21.6 42L46.5 20.9z" />
    <glyph glyph-name="hy-Icons_avatar-group"
      unicode="&#xE004;"
      horiz-adv-x="64" d=" M14 28.4C14 21.3859836771489 19.8650697772166 15.7 27.1 15.7C34.3349302227834 15.7 40.2 21.3859836771489 40.2 28.4C40.2 35.4140163228511 34.3349302227834 41.1 27.1 41.1C19.8650697772166 41.1 14 35.4140163228511 14 28.4z M26.7 0C21.7 0 16.8 0.8 12 2.3L15.6 12.9C19.5 11.6 23.6 11.1 27.7 11.2C31.4 11.3 35.1 12 38.5 13.2L42.3 2.7C37.7 1 32.9 0.2 28 0C27.6 0 27.1 0 26.7 0z M43 42C41.8 42 40.6 41.8 39.5 41.3C43.2 38.5 45.5 34 45.4 29.1C45.4 28.5 45.3 28 45.3 27.5C48.2 28.5 50.4 31.2 50.5 34.4C50.6 38.5 47.2 41.9 43 42z M49.3 25.6C47.8 25 46.3 24.5 44.7 24.2C44.1 21.6 42.7 19.2 40.8 17.3C41.5 17.3 42.2 17.3 42.9 17.4C43.2 17.4 43.4 17.4 43.7 17.5C46.6 17.8 49.4 18.5 52 19.6L49.3 25.6z" />
    <glyph glyph-name="hy-Icons_avatar"
      unicode="&#xE005;"
      horiz-adv-x="64" d=" M19 28.8C19 21.7859836771489 24.7755267271828 16.1 31.9 16.1C39.0244732728172 16.1 44.8 21.7859836771489 44.8 28.8C44.8 35.8140163228511 39.0244732728172 41.5 31.9 41.5C24.7755267271828 41.5 19 35.8140163228511 19 28.8z M31.5 0.5C26.5 0.5 21.7 1.3 17 2.8L20.5 13.3C24.4 12 28.4 11.5 32.5 11.6C36.2 11.7 39.8 12.4 43.2 13.5L47 3.1C42.5 1.5 37.7 0.7 32.8 0.5C32.4 0.5 32 0.5 31.5 0.5z" />
    <glyph glyph-name="hy-Icons_bachelor"
      unicode="&#xE006;"
      horiz-adv-x="64" d=" M25.4 0.4C25.4 0.4 26.3 7.2 21.9 8.6C21.9 8.6 19.3 4.1 25.4 0.4z M25.8 0.9C25.8 0.9 21.8 -1.9 13.8 0.9C13.8 0.9 22.8 4.7 25.8 0.9z M22 3.4C22 3.4 16 7.3 9 5.4C9 5.3 13 0.5 22 3.4z M19.4 5.9C19.4 5.9 20.5 10.8 13.1 15.1C13.1 15.1 13.5 8 19.4 5.9z M11.2 15.1C11.2 15.1 13.7 19.9 10.9 24.7C10.9 24.7 6.9 21.4 11.2 15.1z M9 24.7C9 24.7 12.6 27.5 13.5 33.3C13.5 33.3 7 30.1 9 24.7z M10.7 33.3C10.7 33.3 19 34.3 20.5 39.5C20.5 39.5 13.1 38.7 10.7 33.3z M7.6 28.2C7.6 28.2 3.7 29 3.9 37.2C3.9 37.2 8.6 34.4 7.6 28.2z M12.3 37.2C12.3 37.2 15.9 40.8 13.6 47C13.6 47 9.5 42.3 12.3 37.2z M14.4 38.9C14.4 38.9 23.6 40.2 21.3 46.5C21.2 46.4 15.5 43.7 14.4 38.9z M8.7 32.3C8.7 32.3 12.3 35.9 10 42.1C9.9 42.1 5.9 37.4 8.7 32.3z M3.4 10.6C3.4 10.6 11.5 11.9 16.3 7.4C16.3 7.4 13.8 4.2 3.4 10.6z M12.6 10.3C12.6 10.3 8.8 10.2 3.9 17.1C3.9 17.1 13.1 15.1 12.6 10.3z M8.2 17C8.2 17 2.5 18.5 1 23.8C1 23.7 8.8 21.7 8.2 17z M7.6 21.8C7.6 21.8 1.8 23.7 2.5 30C2.5 30.1 9.2 26 7.6 21.8z M38.6 0.4C38.6 0.4 37.7 7.2 42.1 8.6C42.1 8.6 44.7 4.1 38.6 0.4z M38.2 0.9C38.2 0.9 42.2 -1.9 50.2 0.9C50.2 0.9 41.2 4.7 38.2 0.9z M42 3.4C42 3.4 48 7.3 55 5.4C55 5.3 51 0.5 42 3.4z M44.6 5.9C44.6 5.9 43.5 10.8 50.9 15.1C50.9 15.1 50.5 8 44.6 5.9z M52.8 15.1C52.8 15.1 50.3 19.9 53.1 24.7C53.1 24.7 57.1 21.4 52.8 15.1z M55 24.7C55 24.7 51.4 27.5 50.5 33.3C50.5 33.3 57 30.1 55 24.7z M53.3 33.3C53.3 33.3 45 34.3 43.5 39.5C43.5 39.5 50.9 38.7 53.3 33.3z M56.4 28.2C56.4 28.2 60.3 29 60.1 37.2C60.1 37.2 55.4 34.4 56.4 28.2z M51.7 37.2C51.7 37.2 48.1 40.8 50.4 47C50.4 47 54.5 42.3 51.7 37.2z M49.6 38.9C49.6 38.9 40.4 40.2 42.7 46.5C42.8 46.4 48.5 43.7 49.6 38.9z M55.3 32.3C55.3 32.3 51.7 35.9 54 42.1C54.1 42.1 58.1 37.4 55.3 32.3z M60.6 10.6C60.6 10.6 52.5 11.9 47.7 7.4C47.7 7.4 50.2 4.2 60.6 10.6z M51.4 10.3C51.4 10.3 55.2 10.2 60.1 17.1C60.1 17.1 50.9 15.1 51.4 10.3z M55.8 17C55.8 17 61.5 18.5 63 23.8C63 23.7 55.2 21.7 55.8 17z M56.4 21.8C56.4 21.8 62.2 23.7 61.5 30C61.5 30.1 54.8 26 56.4 21.8z M41.9 2.3C41.9 2.3 41 1.6 39.7 0.6C38.3 -0.4 36.4 -1.6 34.4 -2.6C33.4 -3.1 32.3 -3.5 31.3 -3.9C30.8 -4.1 30.3 -4.2 29.8 -4.4C29.3 -4.5 28.9 -4.6 28.4 -4.7C28 -4.8 27.6 -4.8 27.2 -4.9C26.9 -5 26.5 -5 26.3 -5C25.8 -5 25.5 -5.1 25.5 -5.1V-3.6C25.5 -3.6 25.8 -3.6 26.2 -3.6C26.4 -3.6 26.7 -3.6 27 -3.5C27.3 -3.5 27.7 -3.4 28.1 -3.4C28.5 -3.3 28.9 -3.2 29.4 -3.1C29.8 -3 30.3 -2.8 30.8 -2.7C31.8 -2.4 32.8 -2 33.8 -1.5C35.8 -0.6 37.7 0.5 39 1.4C40.4 2.3 41.2 3 41.2 3L41.9 2.3z M23 3.1C23 3.1 23.8 2.4 25.2 1.5C26.6 0.6 28.4 -0.5 30.4 -1.4C31.4 -1.8 32.4 -2.2 33.4 -2.6C33.9 -2.7 34.3 -2.9 34.8 -3C35.2 -3.1 35.7 -3.2 36.1 -3.3C36.5 -3.4 36.9 -3.4 37.2 -3.4C37.5 -3.5 37.8 -3.4 38 -3.5C38.5 -3.5 38.7 -3.5 38.7 -3.5V-5C38.7 -5 38.4 -5 37.9 -4.9C37.6 -4.9 37.3 -4.9 37 -4.8C36.7 -4.7 36.3 -4.7 35.8 -4.6C35.4 -4.5 34.9 -4.4 34.4 -4.3C33.9 -4.2 33.4 -4 32.9 -3.8C31.9 -3.4 30.9 -3 29.8 -2.5C27.8 -1.5 25.9 -0.3 24.5 0.7C23.1 1.7 22.3 2.4 22.3 2.4L23 3.1z" />
    <glyph glyph-name="hy-Icons_camera"
      unicode="&#xE007;"
      horiz-adv-x="64" d=" M4 41V1H60V41H4zM31.8 7.8C24.6 7.8 18.8 13.6 18.8 20.8C18.8 28 24.6 33.8 31.8 33.8S44.8 28 44.8 20.8C44.8 13.7 39 7.8 31.8 7.8zM47.5 29.5C45.8 29.5 44.3 30.9 44.3 32.7S45.7 35.9 47.5 35.9S50.7 34.5 50.7 32.7S49.2 29.5 47.5 29.5z" />
    <glyph glyph-name="hy-Icons_chat"
      unicode="&#xE008;"
      horiz-adv-x="64" d=" M56 41.2H8V8.9H26V-0.8L37.5 8.9H56V41.2zM45 19H19V23H45V19zM45 27.1H19V31.1H45V27.1z" />
    <glyph glyph-name="hy-Icons_date"
      unicode="&#xE009;"
      horiz-adv-x="64" d=" M55.8 27.9V-0.5H8.3V27.9H55.8M61.8 33.9H2.3V-6.5H61.8V33.9L61.8 33.9z" />
    <glyph glyph-name="hy-Icons_discover"
      unicode="&#xE00A;"
      horiz-adv-x="64" d=" M32 49.5C19.3 49.5 9 39.2 9 26.6C9 22.5 10.1 18.3 12 15.3L12.2 15C12.7 14.2 14.8 11.4 17.7 8.2C23.5 1.6 32 -7.5 32 -7.5S40.5 1.7 46.4 8.3C49.2 11.5 51.2 14.1 51.7 14.9L52 15.4C53.9 18.4 55 22.6 55 26.7C55 39.3 44.7 49.5 32 49.5zM32 9.3C22.2 9.3 14.3 17.2 14.3 26.9S22.2 44.5 32 44.5S49.7 36.6 49.7 26.9S41.8 9.3 32 9.3z M25.4 30.7C25.4 26.9444637011506 28.4444637011506 23.9 32.2 23.9C35.9555362988494 23.9 39 26.9444637011506 39 30.7C39 34.4555362988494 35.9555362988494 37.5 32.2 37.5C28.4444637011506 37.5 25.4 34.4555362988494 25.4 30.7z M32 15.6C29.4 15.6 26.8 16 24.3 16.8L26.2 22.4C28.2 21.7 30.4 21.4 32.5 21.5C34.4 21.6 36.4 21.9 38.2 22.5L40.2 16.9C37.8 16.1 35.3 15.6 32.7 15.5C32.5 15.6 32.3 15.6 32 15.6z" />
    <glyph glyph-name="hy-Icons_done"
      unicode="&#xE00B;"
      horiz-adv-x="64" d=" M21.9 -2L7.5 16L12.1 19.7L21.9 7.4L51.9 44L56.5 40.2z" />
    <glyph glyph-name="hy-Icons_download"
      unicode="&#xE00C;"
      horiz-adv-x="64" d=" M29 45H35V21H29V45z M32 13.2L16.7 28.7L21 32.9L31.9 21.8L42.6 33.1L47 28.9z M59 -3L5 -3L5 16L11 16L11 3L53 3L53 16L59 16z" />
    <glyph glyph-name="hy-Icons_drag"
      unicode="&#xE00D;"
      horiz-adv-x="64" d=" M5 24H59V18H5V24z M5 11H59V5H5V11z M5 37H59V31H5V37z" />
    <glyph glyph-name="hy-Icons_drop-down"
      unicode="&#xE00E;"
      horiz-adv-x="64" d=" M50 36.5L32 5.5L14 36.5z" />
    <glyph glyph-name="hy-Icons_edit-event"
      unicode="&#xE00F;"
      horiz-adv-x="64" d=" M28.5 2.8L11.5 -3L13 14.8z M36.9 45L40.8 42L18.5 13.7L14.6 16.7z M42.8 40.5L46.7 37.5L24.3 9.2L20.5 12.2z M48.6 36L52.5 33L30.2 4.7L26.3 7.7z" />
    <glyph glyph-name="hy-Icons_edit"
      unicode="&#xE010;"
      horiz-adv-x="64" d=" M13.6 12.8L12.5 -0.5L25.4 2.2L51.5 31.9C51.5 31.9 50.1 35.7 46.9 38.7C44.1 41.3 39.8 42.5 39.8 42.5L13.6 12.8z M23.8 4.9L19.4 3.9C19 4.5 18.6 5.1 17.8 5.8C17 6.5 16.5 6.8 15.8 7.2L16.3 11.7C16.3 11.7 19.2 12.2 21.6 10.1C23.9 7.9 23.8 4.9 23.8 4.9z" />
    <glyph glyph-name="hy-Icons_events"
      unicode="&#xE011;"
      horiz-adv-x="64" d=" M55.5 29.8V-2.4H8.5V29.8H55.5M61.5 35.8H2.5V-8.4H61.5V35.8L61.5 35.8z M2.5 42.2H8V34.8H2.5V42.2z M56 42.2H61.5V34.8H56V42.2z M46.8 50.5H52.3V39.3H46.8V50.5z M12.6 50.5H18.1V39.3H12.6V50.5z M21.9 42.2H42.2V34.8H21.9V42.2z M28.2 6.5L23.2 12.7L24.8 14L28.2 9.8L38.8 22.5L40.4 21.2z" />
    <glyph glyph-name="hy-Icons_facebook"
      unicode="&#xE012;"
      horiz-adv-x="64" d=" M45 37.7V45.6C45 45.6 42 46.1 38.7 45.9C36.3 45.8 33.8 45.5 32.2 44.6C31 43.9 28.8 42.7 27.6 39C26.9 36.9 26.9 34.3 26.9 32.2C26.9 29.4 26.9 27.6 26.9 27.6L19.1 27.6L19.1 18.7L26.9 18.8L26.8 -4H35.8L35.8 18.8L43.4 18.8L44.5 27.6L35.7 27.6C35.7 27.6 35.5 33.3 35.7 34.5C35.9 35.7 36.6 37 37.9 37.3C39.1 37.6 45 37.7 45 37.7z" />
    <glyph glyph-name="hy-Icons_favorites"
      unicode="&#xE013;"
      horiz-adv-x="64" d=" M32 48L38.6 27.5L60 27.5L42.7 14.7L49.3 -5.9L32 6.7L14.7 -6L21.3 14.7L4 27.5L25.4 27.5z" />
    <glyph glyph-name="hy-Icons_grid"
      unicode="&#xE014;"
      horiz-adv-x="64" d=" M6 38H58V33H6V38z M6 23H58V19H6V23z M6 9H58V4H6V9z M14 48H19V-6H14V48z M29 48H34V-6H29V48z M43 48H48V-6H43V48z" />
    <glyph glyph-name="hy-Icons_hamburger"
      unicode="&#xE015;"
      horiz-adv-x="64" d=" M6.5 23.5H57.5V18.5H6.5V23.5z M6.5 7H57.5V2H6.5V7z M6.5 40H57.5V35H6.5V40z" />
    <glyph glyph-name="hy-Icons_home"
      unicode="&#xE016;"
      horiz-adv-x="64" d=" M32 42.5L7.5 20.1L14.3 20.1L14.3 14.8L14.3 -0.5L24.8 -0.5L24.8 13.3L38.8 13.3L38.8 -0.5L49.3 -0.5L49.3 14.8L49.3 20.1L56.5 20.1z" />
    <glyph glyph-name="hy-Icons_hy-logo"
      unicode="&#xE017;"
      horiz-adv-x="64" d=" M35 -3H29V-9H35V-3zM29 45H35V51H29V45zM35 18H29V24H35V18zM64 11.2C61.7 16.3 56.5 17 53.3 19.1C51.7 20.1 51.1 22.1 50.9 23.8C49.4 23.6 46.8 23.6 45.6 26.7C44.6 29.1 45 33.2 41.8 36.6C38.9 39.7 35.3 40.7 32 40.5C36 37.8 34.4 33.7 31.5 33.7C27.4 33.7 26.3 38.6 20.3 38.6C18.9 38.6 17.7 38.2 17 37.7C20.3 37.3 21.1 34.5 22.2 32.1C23 30.1 24.5 29 26.7 28.4C26.3 28.2 25.4 27.9 24.2 27.9C21.6 27.9 19.7 29.3 17.9 31.2C16.2 32.9 14.4 34.5 11.3 34.5C9.8 34.5 8.6 34 8.2 33.7C9.9 33.4 12.4 32.4 12.4 30.6C12.4 29.1 10.7 28.5 9.3 29.9C7.8 31.5 5.6 32.8 3.1 32.8C1.9 32.8 0.6 32.4 0.1 31.9C3.1 31.6 4.8 29.7 6.6 25.4C7.6 23 9.1 20.8 12.8 20.7C14.5 20.7 16.9 21.5 18.3 20.1C19.6 18.8 19.2 17.1 19.8 15.8C20.6 14.1 22.1 13.2 25.3 13.1C22.7 10.9 16.6 12.2 14.5 14.4C14.8 8.9 19.1 3.9 27.8 6.3C29.3 6.7 30.4 6.5 30.9 5C31.7 2.9 33.6 2.6 35.3 2.8C39.4 3.3 41.8 2.5 44.1 -0.3C44.6 4.3 41.3 7 39.2 8.3C37.2 9.5 37 10.8 37 11.8C38.4 10.2 40.3 9.5 42.2 9.2C45.5 8.7 47.9 7.8 49.2 6C49.6 11.1 44.2 12.2 43.6 14.4C45.3 13.3 46.5 12.9 48.3 13C50.6 13.2 53.5 15 55.5 11.4C58.2 13.3 61.7 12.7 64 11.2" />
    <glyph glyph-name="hy-Icons_info"
      unicode="&#xE018;"
      horiz-adv-x="64" d=" M32 46.5C17.9 46.5 6.5 35.1 6.5 21S17.9 -4.5 32 -4.5S57.5 6.9 57.5 21S46.1 46.5 32 46.5zM34.7 9.8H29.3V24.1H34.7V9.8zM34.7 27.7H29.3V32.2H34.7V27.7z" />
    <glyph glyph-name="hy-Icons_link-arrow-offsite"
      unicode="&#xE019;"
      horiz-adv-x="64" d=" M19.6 4.5L15.5 8.6L43.1 36.3L47.2 32.1z M45.5 5.5L39.6 6.1L42 31.1L17 29L16.5 34.8L48.5 37.5z" />
    <glyph glyph-name="hy-Icons_link-arrow"
      unicode="&#xE01A;"
      horiz-adv-x="64" d=" M10 24H49.5V18H10V24z M29 0L25.2 4.6L44.8 20.9L25.4 37.4L29.3 42L54 20.9z" />
    <glyph glyph-name="hy-Icons_linkedin"
      unicode="&#xE01B;"
      horiz-adv-x="64" d=" M21.9 35.5C21.9 33.3 20.3 31.5 17.6 31.5C15.1 31.5 13.5 33.3 13.5 35.5C13.5 37.8 15.2 39.5 17.7 39.5S21.8 37.8 21.9 35.5zM13.7 2.5V28.3H21.6V2.5H13.7z M26.4 20.1C26.4 23.3 26.3 26 26.2 28.3H33L33.4 24.7H33.6C34.6 26.4 37.2 28.9 41.5 28.9C46.7 28.9 50.6 25.4 50.6 17.8V2.5H42.7V16.8C42.7 20.1 41.6 22.4 38.7 22.4C36.5 22.4 35.2 20.9 34.6 19.4C34.4 18.9 34.3 18.1 34.3 17.4V2.5H26.4V20.1z" />
    <glyph glyph-name="hy-Icons_list"
      unicode="&#xE01C;"
      horiz-adv-x="64" d=" M6.5 2H57.5V-4H6.5V2z M6.5 13H57.5V7H6.5V13z M6.5 24H57.5V18H6.5V24z M6.5 35H57.5V29H6.5V35z M6.5 46H57.5V40H6.5V46z" />
    <glyph glyph-name="hy-Icons_location"
      unicode="&#xE01D;"
      horiz-adv-x="64" d=" M32 50C19.3 50 9 39.5 9 26.7C9 22.6 10.1 18.3 12 15.2L12.2 14.9C12.7 14 14.8 11.3 17.7 8C23.5 1.2 32 -8 32 -8S40.5 1.3 46.4 8.1C49.2 11.3 51.2 14 51.7 14.8L52 15.3C53.9 18.3 55 22.6 55 26.8C55 39.6 44.7 50 32 50zM32 9.1C22.2 9.1 14.3 17.1 14.3 27S22.2 44.9 32 44.9S49.7 36.9 49.7 27S41.8 9.1 32 9.1z M22.2 27.8C22.2 22.3323809766751 26.5876094516582 17.9 32 17.9C37.4123905483418 17.9 41.8 22.3323809766751 41.8 27.8C41.8 33.2676190233249 37.4123905483418 37.7 32 37.7C26.5876094516582 37.7 22.2 33.2676190233249 22.2 27.8z" />
    <glyph glyph-name="hy-Icons_log"
      unicode="&#xE01E;"
      horiz-adv-x="64" d=" M12 24H64V18H12V24z M12 5H64V-1H12V5z M12 43H64V37H12V43z M0 24H6V18H0V24z M0 5H6V-1H0V5z M0 43H6V37H0V43z" />
    <glyph glyph-name="hy-Icons_magnify-minus"
      unicode="&#xE01F;"
      horiz-adv-x="64" d=" M29.2 2C16.4 2 6 12.5 6 25.5S16.4 49 29.2 49S52.4 38.4 52.4 25.5S42 2 29.2 2zM29.2 43C19.7 43 11.9 35.1 11.9 25.5S19.7 8 29.2 8S46.5 15.9 46.5 25.5S38.8 43 29.2 43z M53.8 -7L41.5 5.5L45.6 9.8L58 -2.8z M20.8 27.6H37.6V23.6H20.8V27.6z" />
    <glyph glyph-name="hy-Icons_magnify-plus"
      unicode="&#xE020;"
      horiz-adv-x="64" d=" M29.2 2C16.4 2 6 12.5 6 25.5S16.4 49 29.2 49S52.4 38.4 52.4 25.5S42 2 29.2 2zM29.2 43C19.7 43 11.9 35.1 11.9 25.5S19.7 8 29.2 8S46.5 15.9 46.5 25.5S38.8 43 29.2 43z M53.8 -7L41.5 5.5L45.6 9.8L58 -2.8z M27.7 33.7H31.7V17.7H27.7V33.7z M21.8 27.6H37.6V23.6H21.8V27.6z" />
    <glyph glyph-name="hy-Icons_master"
      unicode="&#xE021;"
      horiz-adv-x="64" d=" M4.3 15.4L5 9.7C5 9.7 27.7 -7.4 59 10.9L59.2 15.6C59.2 15.5 25.2 7.6 4.3 15.4z M4.2 20.1L4.4 15.4C4.4 15.4 23.8 6.4 59.3 15.5L59.6 21C59.5 21 26.8 15.5 4.2 20.1z M59.2 15.5C59.2 15.5 59.2 15.3 57.7 14.9C57 14.7 56 14.4 55 14.2C54.5 14.1 53.9 13.9 53.3 13.8C52.7 13.7 52.1 13.5 51.4 13.4C50.1 13.1 48.7 12.8 47.2 12.5C45.7 12.3 44.1 12 42.5 11.8C40.9 11.5 39.1 11.4 37.4 11.2C36.5 11.1 35.7 11 34.8 11C33.9 11 33 10.9 32.1 10.9C30.3 10.8 28.5 10.9 26.8 10.9C25.1 11 23.3 11.1 21.7 11.3C20 11.5 18.4 11.7 16.9 11.9C15.4 12.1 14 12.5 12.7 12.7C11.4 13 10.2 13.3 9.2 13.7C8.2 14 7.3 14.3 6.5 14.6C5.8 14.9 5.2 15.1 4.8 15.3C4.4 15.5 4.2 15.6 4.2 15.6S4.4 15.5 4.8 15.3C5.2 15.1 5.8 14.9 6.5 14.6C7.2 14.3 8.1 14 9.2 13.7C10.2 13.4 11.4 13.1 12.7 12.8C14 12.5 15.4 12.2 16.9 12C18.4 11.7 20 11.6 21.7 11.4C23.4 11.2 25.1 11.2 26.8 11.1C28.5 11.1 30.3 11 32.1 11.1C33 11.1 33.9 11.2 34.8 11.2C35.7 11.2 36.6 11.3 37.4 11.4C39.1 11.6 40.9 11.7 42.5 11.9C44.1 12.1 45.7 12.4 47.2 12.6C48.7 12.9 50.1 13.2 51.4 13.5C52.7 13.8 53.9 14 54.9 14.3C55.9 14.6 56.9 14.8 57.6 15C59.2 15.3 59.2 15.5 59.2 15.5z M29 14.5C29 13.2849735503723 30.119288125423 12.3 31.5 12.3C32.880711874577 12.3 34 13.2849735503723 34 14.5C34 15.7150264496277 32.880711874577 16.7 31.5 16.7C30.119288125423 16.7 29 15.7150264496277 29 14.5z M1.8 31.1C1.8 31.1 2.7 30.8 4.3 30.5C5.1 30.3 6.1 30.1 7.2 29.9C8.3 29.7 9.6 29.5 11 29.4C12.4 29.2 13.9 29.1 15.5 29C17.1 28.9 18.8 28.8 20.6 28.7C22.4 28.7 24.2 28.6 26 28.6C27.9 28.6 29.7 28.6 31.6 28.7C32.5 28.7 33.5 28.7 34.4 28.8C35.3 28.8 36.3 28.9 37.2 28.9C39.1 29 40.9 29.1 42.6 29.2C44.4 29.4 46.1 29.4 47.7 29.6C49.3 29.8 50.8 29.9 52.2 30.1C55 30.4 57.4 30.7 59 30.9C60.6 31.1 61.6 31.2 61.6 31.2S60.7 31 59 30.7C58.2 30.6 57.2 30.4 56.1 30.2C55 30 53.7 29.8 52.3 29.6C50.9 29.4 49.4 29.2 47.8 29C46.2 28.8 44.5 28.6 42.7 28.5C40.9 28.3 39.1 28.2 37.2 28.1C36.3 28 35.3 28 34.4 27.9C33.5 27.9 32.5 27.8 31.6 27.8C29.7 27.7 27.8 27.8 25.9 27.8C24 27.8 22.2 27.9 20.4 28C18.6 28.1 16.9 28.3 15.3 28.4C13.7 28.6 12.2 28.8 10.8 29C9.4 29.2 8.1 29.5 7 29.7C5.9 30 4.9 30.2 4.1 30.4C3.3 30.6 2.7 30.8 2.3 31C2.1 31 1.8 31.1 1.8 31.1z" />
    <glyph glyph-name="hy-Icons_minus"
      unicode="&#xE022;"
      horiz-adv-x="64" d=" M8 23.5H56V18.5H8V23.5z" />
    <glyph glyph-name="hy-Icons_modify"
      unicode="&#xE023;"
      horiz-adv-x="64" d=" M5.5 58.5L-5.5 58.5L-5.5 47.5L5.5 47.5z M31.9 37.2C40.9 37.2 48.3 29.8 48.3 20.8S41 4.4 31.9 4.4S15.5 11.8 15.5 20.8S22.9 37.2 31.9 37.2M31.9 43.2C19.5 43.2 9.5 33.2 9.5 20.8C9.5 8.4 19.5 -1.6 31.9 -1.6S54.3 8.4 54.3 20.8C54.3 33.2 44.3 43.2 31.9 43.2L31.9 43.2z" />
    <glyph glyph-name="hy-Icons_navi-triangle"
      unicode="&#xE024;"
      horiz-adv-x="64" d=" M14.5 5L32.5 36L50.5 5z" />
    <glyph glyph-name="hy-Icons_new-group"
      unicode="&#xE025;"
      horiz-adv-x="64" d=" M3 22.5C3 15.541212152132 8.641212152132 9.9 15.6 9.9C22.558787847868 9.9 28.2 15.541212152132 28.2 22.5C28.2 29.458787847868 22.558787847868 35.1 15.6 35.1C8.641212152132 35.1 3 29.458787847868 3 22.5z M15.2 -5.5C10.3 -5.5 5.6 -4.7 1 -3.2L4.5 7.2C8.3 6 12.2 5.4 16.2 5.5C19.8 5.6 23.3 6.2 26.7 7.4L30.4 -3C26 -4.6 21.3 -5.4 16.6 -5.5C16.1 -5.5 15.6 -5.5 15.2 -5.5z M31 35.9C29.8 35.9 28.7 35.7 27.6 35.2C31.2 32.4 33.4 28 33.3 23.1C33.3 22.6 33.2 22 33.2 21.5C36.1 22.5 38.1 25.1 38.2 28.3C38.3 32.5 35.1 35.9 31 35.9z M37.1 19.8C35.7 19.2 34.2 18.7 32.6 18.4C32 15.8 30.7 13.5 28.9 11.6C29.6 11.6 30.3 11.6 31 11.7C31.2 11.7 31.5 11.7 31.7 11.8C34.5 12.1 37.2 12.8 39.7 13.9L37.1 19.8z" />
    <glyph glyph-name="hy-Icons_new-person"
      unicode="&#xE026;"
      horiz-adv-x="64" d=" M9 22.5C9 15.4307552021658 14.6859836771489 9.7 21.7 9.7C28.7140163228511 9.7 34.4 15.4307552021658 34.4 22.5C34.4 29.5692447978342 28.7140163228511 35.3 21.7 35.3C14.6859836771489 35.3 9 29.5692447978342 9 22.5z M21.3 -6C16.4 -6 11.6 -5.2 7 -3.7L10.5 6.9C14.3 5.6 18.2 5.1 22.3 5.2C25.9 5.3 29.4 6 32.8 7.2L36.5 -3.4C32 -5 27.3 -5.8 22.5 -6C22.1 -6 21.7 -6 21.3 -6z" />
    <glyph glyph-name="hy-Icons_notification"
      unicode="&#xE027;"
      horiz-adv-x="64" d=" M46.5 13.3H18.4V27.5C18.4 35 24.3 41.3 31.9 41.3H32.8C40.3 41.3 46.6 34.9 46.6 27.5V13.3z M12 8.8H52V3.4H12V8.8z M15.6 14.2H49.2V8.8H15.6V14.2z M30.2 44H35.7V40.4H30.2V44z M26.5 1.6H36.5V-2H26.5V1.6z" />
    <glyph glyph-name="hy-Icons_opinder-logo-new"
      unicode="&#xE028;"
      horiz-adv-x="64" d=" M40.7 21C36 21 32.2 17.5 31.7 13C31.2 17.5 27.4 21 22.7 21H7V10.2C7 5.3 10.9 1 15.9 1H31.7H31.8H47.6C52.6 1 56 5.3 56 10.2V21H40.7zM24 8H16V9H24V8zM24 13H16V14H24V13zM48 8H41V9H48V8zM48 13H41V14H48V13z M14.6 34.1C14.6 30.8415199759983 17.2415199759983 28.2 20.5 28.2C23.7584800240017 28.2 26.4 30.8415199759983 26.4 34.1C26.4 37.3584800240017 23.7584800240017 40 20.5 40C17.2415199759983 40 14.6 37.3584800240017 14.6 34.1z M28.1 43C28.1 40.7908610006768 29.9356325256938 39 32.2 39C34.4643674743063 39 36.3 40.7908610006768 36.3 43C36.3 45.2091389993232 34.4643674743063 47 32.2 47C29.9356325256938 47 28.1 45.2091389993232 28.1 43z M28.1 26.3C28.1 24.0908610006768 29.9356325256938 22.3 32.2 22.3C34.4643674743063 22.3 36.3 24.0908610006768 36.3 26.3C36.3 28.5091389993232 34.4643674743063 30.3 32.2 30.3C29.9356325256938 30.3 28.1 28.5091389993232 28.1 26.3z M37.9 34.1C37.9 30.8415199759983 40.5415199759983 28.2 43.8 28.2C47.0584800240017 28.2 49.7 30.8415199759983 49.7 34.1C49.7 37.3584800240017 47.0584800240017 40 43.8 40C40.5415199759983 40 37.9 37.3584800240017 37.9 34.1z M37.2 1.9L33.2 -5L29.2 1.9z" />
    <glyph glyph-name="hy-Icons_opinder-logo"
      unicode="&#xE029;"
      horiz-adv-x="64" d=" M56.4 31.8C55.4 33 54 34.3 52 35.1C52.3 35.4 52.6 35.7 52.9 36C53.8 37.2 54.3 38.9 54.3 40.6C54.3 42.3 53.8 44 52.9 45.2C51.8 46.7 50.3 47.4 48.4 47.4C46.6 47.4 45 46.6 43.9 45.2C43 44 42.5 42.3 42.5 40.6C42.5 38.9 43 37.2 43.9 36C44.1 35.7 44.4 35.4 44.7 35.1C42.7 34.4 41.2 33.2 40.3 32.1C40.3 32.1 40.2 32 40.2 32C40.2 32 40.1 32.1 40.1 32.1C39.1 33.2 37.7 34.4 35.7 35.1C36 35.4 36.3 35.7 36.5 36C37.4 37.2 37.9 38.9 37.9 40.6C37.9 42.3 37.4 44 36.5 45.2C35.4 46.7 33.9 47.4 32 47.4C30.2 47.4 28.6 46.6 27.5 45.2C26.6 44 26.1 42.3 26.1 40.6C26.1 38.9 26.6 37.2 27.5 36C27.7 35.7 28 35.4 28.3 35.1C26.3 34.4 24.8 33.2 23.9 32.1C23.9 32.1 23.8 32 23.8 32C23.8 32 23.7 32.1 23.7 32.1C22.7 33.2 21.3 34.4 19.3 35.1C19.6 35.4 19.9 35.7 20.1 36C21 37.2 21.5 38.9 21.5 40.6C21.5 42.3 21 44 20.1 45.2C19 46.7 17.5 47.4 15.6 47.4C13.8 47.4 12.2 46.6 11.1 45.2C10.2 44 9.7 42.3 9.7 40.6C9.7 38.9 10.2 37.2 11.1 36C11.4 35.6 11.6 35.3 12 35.1C8.7 33.9 6.6 31.1 5.6 28.5C5.4 28 5.6 27.4 6.1 27.2C6.6 27 7.2 27.2 7.4 27.7C8 29.3 9.1 30.8 10.4 31.8C11.9 33.1 13.7 33.7 15.7 33.7C19 33.7 21.2 32.1 22.3 30.8C22.4 30.7 22.6 30.5 22.7 30.3C21.8 28.8 21.3 27 21.3 25.5C21.3 23.7 21.6 22.7 22.2 22.1C22.8 21.6 23.4 21.6 23.8 21.6C23.9 21.6 24 21.6 24 21.6C24.4 21.6 25 21.6 25.6 22.1C26.2 22.7 26.5 23.7 26.5 25.5C26.5 27 26 28.8 25.1 30.3C25.2 30.5 25.3 30.6 25.5 30.8C26.7 32.1 28.8 33.7 32.1 33.7C35.4 33.7 37.6 32.1 38.7 30.8C38.8 30.7 39 30.5 39.1 30.3C38.2 28.8 37.7 27 37.7 25.5C37.7 23.7 38 22.7 38.6 22.1C39.2 21.6 39.8 21.6 40.2 21.6C40.3 21.6 40.4 21.6 40.4 21.6C40.8 21.6 41.4 21.6 42 22.1C42.6 22.7 42.9 23.7 42.9 25.5C42.9 27 42.4 28.8 41.5 30.3C41.6 30.5 41.7 30.6 41.9 30.8C43.1 32.1 45.2 33.7 48.5 33.7C51.8 33.7 53.9 31.9 55.1 30.5C56.8 28.5 57.3 26.2 57.3 24.9C57.3 22.3 55.8 21.6 54.4 21C53.4 20.6 50.3 20.4 47.3 20.3C43.9 20.2 40.1 20 37.1 19.4C35.4 19.1 32.9 17.9 32.9 13.2S32.9 -3 32.9 -3C32.9 -3.4 32.3 -3.7 31.9 -3.7C31.5 -3.7 30.9 -3.4 30.9 -3C30.9 -3 30.9 8.4 30.9 13.2S28.6 19.1 26.9 19.4C23.9 20 20.1 20.1 16.7 20.3C13.7 20.4 10.6 20.6 9.6 21C8.4 21.5 7.1 22.1 6.8 24C6.7 24.5 6.3 24.9 5.8 24.9H5.8C5.3 25 5 24.5 5 24V4.5C5 0.6 7.6 -0.5 9 -1.2C10.3 -1.8 13.2 -1.9 16.8 -2C20.1 -2.1 23.9 -2.3 26.8 -2.9C29.7 -3.4 30.7 -4.2 31 -4.8C31 -4.9 31.1 -4.9 31.1 -5C31.3 -5.3 31.6 -5.6 32 -5.6C32.4 -5.6 32.7 -5.4 32.9 -5.1C33 -5 33 -5 33.1 -4.9C33.4 -4.3 34.4 -3.5 37.3 -3C40.2 -2.4 44 -2.3 47.3 -2.1C50.9 -1.9 53.8 -1.8 55.1 -1.3C56.4 -0.7 58.5 0.3 58.9 3.5C58.9 3.7 58.8 4.1 58.8 4.4V24.9C58.8 27.1 58 29.7 56.4 31.8zM15.7 35.7C13 35.7 11.8 38.3 11.8 40.6C11.8 43 13 45.5 15.7 45.5C18.4 45.5 19.6 42.9 19.6 40.6C19.6 38.3 18.4 35.7 15.7 35.7zM24.2 23.6C24.2 23.5 24 23.4 23.8 23.4C23.6 23.4 23.4 23.6 23.4 23.6C23.3 23.7 23.1 24.2 23.1 25.6C23.1 26.4 23.3 27.4 23.8 28.4C24.3 27.4 24.5 26.4 24.5 25.6C24.5 24.1 24.3 23.7 24.2 23.6zM32.1 35.7C29.4 35.7 28.2 38.3 28.2 40.6C28.2 41.9 28.6 43.2 29.2 44.1C29.9 45.1 30.9 45.5 32.1 45.5C34.8 45.5 36 42.9 36 40.6C36 39.3 35.6 38 35 37.1C34.3 36.2 33.3 35.7 32.1 35.7zM40.6 23.6C40.6 23.5 40.4 23.4 40.2 23.4C40 23.4 39.8 23.6 39.8 23.6C39.7 23.7 39.5 24.2 39.5 25.6C39.5 26.4 39.7 27.4 40.2 28.4C40.7 27.4 40.9 26.4 40.9 25.6C40.9 24.2 40.7 23.7 40.6 23.6zM48.4 35.7C45.7 35.7 44.5 38.3 44.5 40.6C44.5 41.9 44.9 43.2 45.5 44.1C46.2 45.1 47.2 45.5 48.4 45.5C51.1 45.5 52.3 42.9 52.3 40.6C52.4 38.3 51.1 35.7 48.4 35.7zM23.9 6H12V7H24V6zM23.9 11H12V12H24V11zM51.9 6H39.9V7H51.9V6zM51.9 11H39.9V12H51.9V11z" />
    <glyph glyph-name="hy-Icons_pdf"
      unicode="&#xE02A;"
      horiz-adv-x="64" d=" M22.7 33.1H26.2C28.6 33.1 30 31.7 30 29.5V29.5C30 27.1 28.3 25.9 26.1 25.8H24.9V22.6H22.7V33.1zM26.1 27.7C27.2 27.7 27.9 28.4 27.9 29.4V29.4C27.9 30.5 27.3 31.1 26.1 31.1H24.9V27.7H26.1z M31.4 33.1H34.8C37.8 33.1 39.8 31 39.8 27.9V27.8C39.8 24.7 37.8 22.6 34.8 22.6H31.4V33.1zM33.6 31.1V24.5H34.8C36.5 24.5 37.6 25.7 37.6 27.7V27.8C37.6 29.9 36.5 31.1 34.8 31.1H33.6z M41.5 33.1H48.3V31.1H43.7V28.7H47.7V26.7H43.7V22.5H41.5V33.1z M55 -7L9 -7L9 49L55 49L55 43L15 43L15 -1L49 -1L49 7L55 7z M23 17H39V13H23V17z M23 11H39V7H23V11z" />
    <glyph glyph-name="hy-Icons_people"
      unicode="&#xE02B;"
      horiz-adv-x="64" d=" M11.8 33.9C11.8 28.5980664016244 16.0980664016244 24.3 21.4 24.3C26.7019335983756 24.3 31 28.5980664016244 31 33.9C31 39.2019335983756 26.7019335983756 43.5 21.4 43.5C16.0980664016244 43.5 11.8 39.2019335983756 11.8 33.9z M14.2 -1.5L7 11.4L14.2 24.2L28.6 24.2L35.8 11.4L28.6 -1.5z M38.6 25.6C38.6 21.5683213262352 41.9130928512521 18.3 46 18.3C50.0869071487479 18.3 53.4 21.5683213262352 53.4 25.6C53.4 29.6316786737648 50.0869071487479 32.9 46 32.9C41.9130928512521 32.9 38.6 29.6316786737648 38.6 25.6z M40.5 -1.5L35.1 8.3L40.5 18.2L51.5 18.2L57 8.3L51.5 -1.5z" />
    <glyph glyph-name="hy-Icons_person-outline"
      unicode="&#xE02C;"
      horiz-adv-x="64" d=" M31.6 24.2C26.2 24.2 21.8 28.5 21.8 33.8C21.8 39.1 26.2 43.4 31.6 43.4C37 43.4 41.4 39.1 41.4 33.8C41.5 28.6 37.1 24.2 31.6 24.2zM31.6 40.6C27.8 40.6 24.7 37.6 24.7 33.9C24.7 30.2 27.8 27.2 31.6 27.2C35.4 27.2 38.5 30.2 38.5 33.9C38.5 37.6 35.4 40.6 31.6 40.6z M39.3 -1.5H24.7L17.5 11.2L24.7 23.9H39.3L46.5 11.2L39.3 -1.5zM26.5 1.5H37.4L42.9 11.2L37.4 20.9H26.5L21 11.2L26.5 1.5z" />
    <glyph glyph-name="hy-Icons_person"
      unicode="&#xE02D;"
      horiz-adv-x="64" d=" M22.3 34C22.3 28.7532948766075 26.6428379266413 24.5 32 24.5C37.3571620733587 24.5 41.7 28.7532948766075 41.7 34C41.7 39.2467051233925 37.3571620733587 43.5 32 43.5C26.6428379266413 43.5 22.3 39.2467051233925 22.3 34z M24.8 -2L17.5 11L24.8 24L39.2 24L46.5 11L39.2 -2z" />
    <glyph glyph-name="hy-Icons_plus"
      unicode="&#xE02E;"
      horiz-adv-x="64" d=" M28.2 45.1H32.7V-2.9H28.2V45.1z M7.2 23.4H55.2V18.9H7.2V23.4z" />
    <glyph glyph-name="hy-Icons_profile"
      unicode="&#xE02F;"
      horiz-adv-x="64" d=" M58 39V3H6V39H58M64 45H0V-3H64V45L64 45z M36.8 25C36.8 21.1892352261675 39.8892352261675 18.1 43.7 18.1C47.5107647738325 18.1 50.6 21.1892352261675 50.6 25C50.6 28.8107647738325 47.5107647738325 31.9 43.7 31.9C39.8892352261675 31.9 36.8 28.8107647738325 36.8 25z" />
    <glyph glyph-name="hy-Icons_question"
      unicode="&#xE030;"
      horiz-adv-x="64" d=" M32 46.5C17.9 46.5 6.5 35.1 6.5 21S17.9 -4.5 32 -4.5S57.5 6.9 57.5 21S46.1 46.5 32 46.5zM33.3 11.6H29.7V15.2H33.3V11.6zM38.4 25.7C38.4 22.2 36.1 20.6 33.3 19.9L33.3 17.6H29.6V22.6C32.7 22.9 34.2 23.9 34.2 25.5V25.6C34.2 26.9 33.2 27.7 31.7 27.7C30.2 27.7 29 26.9 28 25.9L25.6 28.8C27.2 30.4 29.2 31.5 31.9 31.5C35.8 31.6 38.4 29.4 38.4 25.7L38.4 25.7z" />
    <glyph glyph-name="hy-Icons_remove"
      unicode="&#xE031;"
      horiz-adv-x="64" d=" M53.28371 46.52671H57.4556V-0.28331H53.28371V46.52671z M10.71629 46.52671H57.52631V42.35482H10.71629V46.52671z" />
    <glyph glyph-name="hy-Icons_search"
      unicode="&#xE032;"
      horiz-adv-x="64" d=" M29.2 2C16.4 2 6 12.5 6 25.5S16.4 49 29.2 49S52.4 38.4 52.4 25.5S42 2 29.2 2zM29.2 43C19.7 43 11.9 35.1 11.9 25.5S19.7 8 29.2 8S46.5 15.9 46.5 25.5S38.8 43 29.2 43z M53.8 -7L41.5 5.5L45.6 9.8L58 -2.8z" />
    <glyph glyph-name="hy-Icons_time"
      unicode="&#xE033;"
      horiz-adv-x="64" d=" M32 41.1C43.1 41.1 52.1 32.1 52.1 21S43.1 0.9 32 0.9S11.9 9.9 11.9 21S20.9 41.1 32 41.1M32 46.5C17.9 46.5 6.5 35.1 6.5 21S17.9 -4.5 32 -4.5S57.5 6.9 57.5 21S46.1 46.5 32 46.5L32 46.5z M41.1 15.6L27.7 15.6L27.7 32.6L33.1 32.6L33.1 21L41.1 21z" />
    <glyph glyph-name="hy-Icons_todo-list"
      unicode="&#xE034;"
      horiz-adv-x="64" d=" M58 39V3H6V39H58M64 45H0V-3H64V45L64 45z M35.7 39.5L35.7 20.5L43.6 28.3L51.7 20.2L51.7 39.5z" />
    <glyph glyph-name="hy-Icons_twitter"
      unicode="&#xE035;"
      horiz-adv-x="64" d=" M8.5 5.9C8.5 5.9 8.5 5.9 8.5 5.9C8.6 6 8.6 6 8.7 5.9C10.2 5.7 11.7 5.7 13.2 5.9C16.7 6.3 19.8 7.6 22.6 9.8C22.7 9.8 22.7 9.9 22.8 10C22.6 10 22.4 10 22.3 10C22.1 10 21.9 10 21.8 10.1C18 10.8 15.4 12.9 14 16.6C13.9 16.8 13.9 16.9 14.2 16.8C15.2 16.6 16.3 16.6 17.3 16.8C17.6 16.8 17.9 16.9 18.1 17C18.1 17 18.1 17 18.1 17C18.1 17 18 17 18 17C15.7 17.6 13.8 18.9 12.4 20.9C11.2 22.6 10.7 24.4 10.6 26.5C10.6 26.8 10.6 26.8 10.8 26.7C11.7 26.2 12.7 25.9 13.7 25.7C14 25.6 14.4 25.6 14.8 25.6C14.8 25.7 14.7 25.7 14.6 25.8C13.8 26.4 13.2 27 12.6 27.8C10.6 30.6 10.1 33.6 11.1 36.9C11.3 37.5 11.5 38.1 11.8 38.6C11.9 38.7 12 38.8 12.1 38.6C12.1 38.6 12.1 38.5 12.2 38.5C13.2 37.3 14.2 36.2 15.4 35.2C18.5 32.5 21.9 30.6 25.8 29.5C27.7 29 29.6 28.6 31.5 28.5C31.8 28.5 31.8 28.5 31.8 28.8C31.6 29.9 31.6 31 31.7 32C32.2 35.9 35.1 39.2 38.8 40.2C39.3 40.3 39.9 40.4 40.4 40.5C41 40.5 41.6 40.5 42.2 40.5C42.3 40.5 42.3 40.5 42.4 40.5C44.6 40.2 46.6 39.3 48.2 37.7C48.4 37.5 48.6 37.5 48.8 37.5C50.8 37.9 52.6 38.7 54.3 39.7C54.4 39.7 54.4 39.8 54.5 39.7C54.5 39.7 54.5 39.6 54.5 39.5C54.5 39.5 54.5 39.5 54.5 39.4C53.8 37.3 52.5 35.7 50.7 34.5C50.6 34.5 50.6 34.4 50.5 34.3C52.3 34.5 54.1 35 55.8 35.8C55.8 35.7 55.8 35.7 55.8 35.7C55.7 35.6 55.7 35.5 55.6 35.5C54.4 33.8 53 32.2 51.3 31C51.1 30.8 51 30.7 51 30.4C51 29.8 51 29.3 51 28.7C51 27.6 50.9 26.4 50.7 25.3C49.6 18.8 46.8 13.2 42.1 8.7C40.3 7 38.3 5.6 36.2 4.5C32.6 2.6 28.7 1.7 24.7 1.6C23.1 1.5 21.5 1.6 19.9 1.8C16 2.3 12.4 3.7 9 5.8C8.7 5.8 8.6 5.9 8.5 5.9z" />
    <glyph glyph-name="hy-Icons_units-and-faculties"
      unicode="&#xE036;"
      horiz-adv-x="64" d=" M6.8 6.4H57.2V2.6H6.8V6.4z M4 3.6H60V-2H4V3.6z M6.8 31.8H57.2V26.2H6.8V31.8z M9.6 33.7L9.6 30.8L54.4 30.8L54.4 33.7L32 44z M12.4 27.1H18V9.3H12.4V27.1z M23.6 27.1H29.2V9.3H23.6V27.1z M34.8 27.1H40.4V9.3H34.8V27.1z M46 27.1H51.6V9.3H46V27.1z" />
    <glyph glyph-name="hy-Icons_video"
      unicode="&#xE037;"
      horiz-adv-x="64" d=" M28 28.4L41.8 20.4L28 12.4z M32 40.5C42.8 40.5 51.5 31.8 51.5 21S42.8 1.5 32 1.5S12.5 10.2 12.5 21S21.2 40.5 32 40.5M32 46.5C17.9 46.5 6.5 35.1 6.5 21S17.9 -4.5 32 -4.5C46.1 -4.5 57.5 6.9 57.5 21S46.1 46.5 32 46.5L32 46.5z" />
    <glyph glyph-name="hy-Icons_warning"
      unicode="&#xE038;"
      horiz-adv-x="64" d=" M32.1 43L5.3 -3H59L32.1 43zM35 3H29V8H35V3zM29 12V28H35V12H29z" />
    <glyph glyph-name="hy-Icons_you-tube"
      unicode="&#xE039;"
      horiz-adv-x="64" d=" M43.2 40V29.3C43 29 42.7 28.7 42.3 28.5C42 28.3 41.7 28.2 41.5 28.2C41.3 28.2 41.1 28.3 40.9 28.4C40.8 28.6 40.7 28.8 40.7 29.1V40H38V28.2C38 27.3 38.2 26.7 38.5 26.3C38.8 25.9 39.3 25.7 40 25.7C40.6 25.7 41.1 25.8 41.7 26.1C42.3 26.4 42.8 26.8 43.3 27.4V25.8H46.1V40H43.2zM34.6 39.3C33.9 40 32.9 40.3 31.7 40.3C30.4 40.3 29.4 40 28.6 39.3C27.9 38.7 27.5 37.8 27.5 36.7V29.4C27.5 28.2 27.9 27.3 28.6 26.5C29.4 25.8 30.4 25.4 31.6 25.4C32.9 25.4 33.9 25.7 34.6 26.4C35.4 27.1 35.7 28 35.7 29.2V36.5C35.7 37.7 35.4 38.6 34.6 39.3zM32.9 29.2C32.9 28.8 32.8 28.5 32.6 28.3C32.4 28.1 32.1 28 31.7 28C31.3 28 31 28.1 30.8 28.3C30.6 28.5 30.5 28.8 30.5 29.2V36.9C30.5 37.2 30.6 37.5 30.8 37.6C31 37.8 31.3 37.9 31.6 37.9C32 37.9 32.3 37.8 32.5 37.6C32.7 37.4 32.8 37.2 32.8 36.9V29.2zM24.1 45L22.1 37.3H21.9L19.9 45H16.7L20.5 33.4V25.8H23.7V33.7L27.3 45H24.1zM46.1 11.3C46.3 11.1 46.3 10.7 46.3 10.2V8.9H44.1V10.2C44.1 10.7 44.2 11.1 44.4 11.3C44.6 11.5 44.8 11.7 45.3 11.7C45.7 11.7 46 11.5 46.1 11.3zM37.4 11.4C37.2 11.6 37 11.7 36.6 11.7C36.4 11.7 36.2 11.7 36.1 11.6C35.9 11.5 35.7 11.4 35.6 11.2V3.2C35.8 3 36 2.8 36.2 2.7C36.4 2.6 36.6 2.6 36.8 2.6C37.1 2.6 37.3 2.7 37.5 2.9C37.6 3.1 37.7 3.4 37.7 3.8V10.4C37.7 10.8 37.6 11.1 37.4 11.4zM37.4 11.4C37.2 11.6 37 11.7 36.6 11.7C36.4 11.7 36.2 11.7 36.1 11.6C35.9 11.5 35.7 11.4 35.6 11.2V3.2C35.8 3 36 2.8 36.2 2.7C36.4 2.6 36.6 2.6 36.8 2.6C37.1 2.6 37.3 2.7 37.5 2.9C37.6 3.1 37.7 3.4 37.7 3.8V10.4C37.7 10.8 37.6 11.1 37.4 11.4zM51.7 21.3H12.3C8 21.3 4.5 17.7 4.5 13.3V5C4.5 0.6 8 -3 12.3 -3H51.6C55.9 -3 59.4 0.6 59.4 5V13.2C59.5 17.6 56 21.3 51.7 21.3zM22.9 15.6H20V0.8H17.2V15.6H14.3V18.1H23V15.6zM31.2 0.8H28.7V2.2C28.3 1.7 27.8 1.3 27.3 1C26.8 0.7 26.3 0.6 25.9 0.6C25.3 0.6 24.9 0.8 24.6 1.2C24.3 1.6 24.2 2.1 24.2 2.9V13.6H26.7V3.7C26.7 3.4 26.8 3.2 26.9 3.1C27 3 27.2 2.9 27.4 2.9C27.6 2.9 27.8 3 28.1 3.2C28.4 3.4 28.7 3.6 28.9 3.9V13.6H31.4V0.8zM40.3 3.4C40.3 2.5 40.1 1.8 39.7 1.3C39.3 0.8 38.7 0.6 38 0.6C37.5 0.6 37.1 0.7 36.7 0.9C36.3 1.1 36 1.4 35.6 1.8V0.8H33.1V18.1H35.6V12.5C35.9 12.9 36.3 13.2 36.7 13.4C37.1 13.6 37.5 13.7 37.9 13.7C38.7 13.7 39.3 13.4 39.7 12.9C40.1 12.4 40.3 11.6 40.3 10.5V3.4zM49 6.9H44.2V4.5C44.2 3.8 44.3 3.4 44.4 3.1C44.6 2.8 44.9 2.7 45.3 2.7C45.7 2.7 46 2.8 46.2 3C46.4 3.2 46.4 3.7 46.4 4.4V5H49V4.4C49 3.1 48.7 2.1 48 1.4C47.4 0.7 46.4 0.4 45.2 0.4C44.1 0.4 43.2 0.7 42.5 1.4C41.9 2.1 41.5 3.1 41.5 4.3V10.1C41.5 11.2 41.9 12.1 42.6 12.8C43.3 13.5 44.2 13.8 45.3 13.8C46.4 13.8 47.3 13.5 47.9 12.8C48.5 12.1 48.9 11.2 48.9 10V6.9zM36.7 11.7C36.5 11.7 36.3 11.7 36.2 11.6C36 11.5 35.8 11.4 35.7 11.2V3.2C35.9 3 36.1 2.8 36.3 2.7C36.5 2.6 36.7 2.6 36.9 2.6C37.2 2.6 37.4 2.7 37.6 2.9C37.7 3.1 37.8 3.4 37.8 3.8V10.4C37.8 10.8 37.7 11.1 37.5 11.4C37.3 11.6 37 11.7 36.7 11.7zM37.4 11.4C37.2 11.6 37 11.7 36.6 11.7C36.4 11.7 36.2 11.7 36.1 11.6C35.9 11.5 35.7 11.4 35.6 11.2V3.2C35.8 3 36 2.8 36.2 2.7C36.4 2.6 36.6 2.6 36.8 2.6C37.1 2.6 37.3 2.7 37.5 2.9C37.6 3.1 37.7 3.4 37.7 3.8V10.4C37.7 10.8 37.6 11.1 37.4 11.4zM37.4 11.4C37.2 11.6 37 11.7 36.6 11.7C36.4 11.7 36.2 11.7 36.1 11.6C35.9 11.5 35.7 11.4 35.6 11.2V3.2C35.8 3 36 2.8 36.2 2.7C36.4 2.6 36.6 2.6 36.8 2.6C37.1 2.6 37.3 2.7 37.5 2.9C37.6 3.1 37.7 3.4 37.7 3.8V10.4C37.7 10.8 37.6 11.1 37.4 11.4z" />
  </font>
</defs>
</svg>
