<?xml version="1.0" encoding="utf-8"?>
<!-- Generator: Adobe Illustrator 19.2.0, SVG Export Plug-In . SVG Version: 6.00 Build 0)  -->
<svg version="1.1" id="Layer_1" xmlns="http://www.w3.org/2000/svg" xmlns:xlink="http://www.w3.org/1999/xlink" x="0px" y="0px"
	 viewBox="0 0 31 31" enable-background="new 0 0 31 31" xml:space="preserve">
<g>
	<g>
		<g>
			<g>
				<g>
					<circle fill="#178FEB" cx="12.9" cy="12" r="7"/>
				</g>
			</g>
		</g>
		<g>
			<g>
				<g>
					<path fill="#178FEB" d="M12.7,29.1c-3,0-5.9-0.8-8.7-2.3l2.8-5.3c2.1,1.1,4.2,1.6,6.4,1.5c1.9-0.1,3.9-0.7,5.7-1.7l3,5.2
						c-2.7,1.5-5.5,2.4-8.4,2.5C13.2,29.1,12.9,29.1,12.7,29.1z"/>
				</g>
			</g>
		</g>
	</g>
	<g>
		<g>
			<g>
				<path fill="#178FEB" d="M22.9,5.6c-0.7,0-1.4,0.1-1.9,0.4c2.1,1.6,3.4,4.1,3.3,6.9c0,0.3,0,0.6-0.1,0.9c1.7-0.6,2.9-2.1,2.9-3.9
					C27.2,7.6,25.3,5.7,22.9,5.6z"/>
			</g>
		</g>
	</g>
	<g>
		<g>
			<g>
				<path fill="#178FEB" d="M26.5,14.9c-0.8,0.4-1.7,0.6-2.6,0.8c-0.4,1.5-1.1,2.8-2.2,3.9c0.4,0,0.8,0,1.2,0c0.1,0,0.3,0,0.4,0
					c1.6-0.2,3.2-0.6,4.6-1.2L26.5,14.9z"/>
			</g>
		</g>
	</g>
</g>
</svg>
