<?xml version="1.0" encoding="utf-8"?>
<!-- Generator: Adobe Illustrator 19.2.0, SVG Export Plug-In . SVG Version: 6.00 Build 0)  -->
<svg version="1.1" id="Layer_1" xmlns="http://www.w3.org/2000/svg" xmlns:xlink="http://www.w3.org/1999/xlink" x="0px" y="0px"
	 viewBox="0 0 31 31" enable-background="new 0 0 31 31" xml:space="preserve">
<g>
	<g>
		<g>
			<path fill="#178FEB" d="M10.5,24.3c0,0-3-1.9-6.5-1C4,23.3,6,25.7,10.5,24.3z"/>
		</g>
	</g>
	<g>
		<g>
			<path fill="#178FEB" d="M9.2,23.1c0,0,0.5-2.5-3.1-4.6C6.1,18.5,6.3,22,9.2,23.1z"/>
		</g>
	</g>
	<g>
		<g>
			<path fill="#178FEB" d="M4.9,13.7c0,0-2,1.6,0.2,4.8C5.1,18.5,6.3,16.1,4.9,13.7z"/>
		</g>
	</g>
	<g>
		<g>
			<path fill="#178FEB" d="M4,13.7c0,0,1.8-1.4,2.3-4.3C6.3,9.4,3,11,4,13.7z"/>
		</g>
	</g>
	<g>
		<g>
			<path fill="#178FEB" d="M4.8,9.4c0,0,4.2-0.5,4.9-3.1C9.7,6.3,6.1,6.6,4.8,9.4z"/>
		</g>
	</g>
	<g>
		<g>
			<path fill="#178FEB" d="M3.3,11.9c0.5-3.1-1.9-4.5-1.9-4.5C1.4,11.5,3.3,11.9,3.3,11.9z"/>
		</g>
	</g>
	<g>
		<g>
			<path fill="#178FEB" d="M6.3,2.5c0,0-2,2.3-0.6,4.9C5.7,7.4,7.5,5.6,6.3,2.5z"/>
		</g>
	</g>
	<g>
		<g>
			<path fill="#178FEB" d="M10.1,2.8c0,0-2.9,1.4-3.4,3.8C6.7,6.6,11.3,5.9,10.1,2.8z"/>
		</g>
	</g>
	<g>
		<g>
			<path fill="#178FEB" d="M4.5,4.9c0,0-2,2.3-0.6,4.9C3.8,9.8,5.6,8.1,4.5,4.9z"/>
		</g>
	</g>
	<g>
		<g>
			<path fill="#178FEB" d="M7.6,22.3c-2.4-2.2-6.4-1.6-6.4-1.6C6.4,23.9,7.6,22.3,7.6,22.3z"/>
		</g>
	</g>
	<g>
		<g>
			<path fill="#178FEB" d="M5.8,20.9c0.3-2.4-4.3-3.4-4.3-3.4C3.9,20.9,5.8,20.9,5.8,20.9z"/>
		</g>
	</g>
	<g>
		<g>
			<path fill="#178FEB" d="M0,14.1c0.8,2.6,3.6,3.4,3.6,3.4C3.9,15.1,0,14.1,0,14.1z"/>
		</g>
	</g>
	<g>
		<g>
			<path fill="#178FEB" d="M3.3,15.1C4.1,13,0.8,11,0.8,11C0.4,14.1,3.3,15.1,3.3,15.1z"/>
		</g>
	</g>
	<g>
		<g>
			<path fill="#178FEB" d="M20.4,24.7l-0.2-0.2c1.1-1.5,0.3-2.9,0.3-2.9c-1.7,0.5-1.8,2.7-1.8,3.7c-0.1,0.1-0.1,0.1-0.2,0.2
				c0,0,0,0,0,0c-0.6,0.4-1.4,0.8-2.2,1.2c-0.3,0.1-0.6,0.3-0.9,0.4c-0.3-0.1-0.6-0.2-0.9-0.4c-0.9-0.4-1.8-0.9-2.5-1.4
				c0-0.9-0.1-3.1-1.8-3.7c0,0-0.8,1.4,0.4,2.9l-0.1,0.1c-1.9-0.2-4.3,0.8-4.3,0.8c2.9,1,4.7,0.6,5.5,0.2c0.7,0.5,1.6,1,2.5,1.5
				c0.1,0,0.2,0.1,0.2,0.1c-0.1,0-0.3,0.1-0.4,0.1c-0.2,0-0.5,0.1-0.6,0.1c-0.2,0-0.4,0.1-0.6,0.1c-0.2,0-0.4,0-0.5,0
				c-0.2,0-0.5,0-0.5,0v0.8c0,0,0.3,0,0.5,0c0.1,0,0.4,0,0.6,0c0.2,0,0.4-0.1,0.6-0.1c0.2,0,0.4-0.1,0.7-0.2
				c0.2-0.1,0.5-0.2,0.7-0.2c0.1,0,0.3-0.1,0.4-0.2c0.1,0.1,0.3,0.1,0.4,0.2c0.3,0.1,0.5,0.2,0.7,0.2c0.2,0.1,0.5,0.1,0.7,0.2
				c0.2,0,0.4,0.1,0.6,0.1c0.2,0,0.4,0,0.5,0c0.3,0,0.5,0,0.5,0v-0.8c0,0-0.2,0-0.5,0c-0.1,0-0.4,0-0.5,0c-0.2,0-0.3,0-0.5-0.1
				c-0.2,0-0.4-0.1-0.6-0.1c-0.1,0-0.3-0.1-0.4-0.1c0.1,0,0.2-0.1,0.2-0.1c0.9-0.5,1.8-1,2.4-1.5c0.9,0.3,2.7,0.7,5.4-0.3
				C24.6,25.5,22.2,24.6,20.4,24.7z"/>
		</g>
	</g>
	<g>
		<g>
			<path fill="#178FEB" d="M20.5,24.3c4.5,1.4,6.5-1,6.5-1C23.5,22.4,20.5,24.3,20.5,24.3z"/>
		</g>
	</g>
	<g>
		<g>
			<path fill="#178FEB" d="M24.9,18.5c-3.7,2.1-3.1,4.6-3.1,4.6C24.7,22,24.9,18.5,24.9,18.5z"/>
		</g>
	</g>
	<g>
		<g>
			<path fill="#178FEB" d="M26.1,13.7c-1.4,2.4-0.2,4.8-0.2,4.8C28.1,15.3,26.1,13.7,26.1,13.7z"/>
		</g>
	</g>
	<g>
		<g>
			<path fill="#178FEB" d="M24.7,9.4c0.5,2.9,2.3,4.3,2.3,4.3C28,11,24.7,9.4,24.7,9.4z"/>
		</g>
	</g>
	<g>
		<g>
			<path fill="#178FEB" d="M21.3,6.3c0.7,2.6,4.9,3.1,4.9,3.1C24.9,6.6,21.3,6.3,21.3,6.3z"/>
		</g>
	</g>
	<g>
		<g>
			<path fill="#178FEB" d="M27.7,11.9c0,0,1.9-0.4,1.9-4.5C29.6,7.4,27.2,8.8,27.7,11.9z"/>
		</g>
	</g>
	<g>
		<g>
			<path fill="#178FEB" d="M24.7,2.5c-1.2,3.1,0.6,4.9,0.6,4.9C26.7,4.8,24.7,2.5,24.7,2.5z"/>
		</g>
	</g>
	<g>
		<g>
			<path fill="#178FEB" d="M24.3,6.6c-0.6-2.4-3.4-3.8-3.4-3.8C19.7,5.9,24.3,6.6,24.3,6.6z"/>
		</g>
	</g>
	<g>
		<g>
			<path fill="#178FEB" d="M26.5,4.9c-1.2,3.1,0.6,4.9,0.6,4.9C28.6,7.3,26.5,4.9,26.5,4.9z"/>
		</g>
	</g>
	<g>
		<g>
			<path fill="#178FEB" d="M23.4,22.3c0,0,1.3,1.6,6.4-1.6C29.8,20.7,25.7,20,23.4,22.3z"/>
		</g>
	</g>
	<g>
		<g>
			<path fill="#178FEB" d="M29.6,17.5c0,0-4.6,1-4.3,3.4C25.2,20.9,27.1,20.9,29.6,17.5z"/>
		</g>
	</g>
	<g>
		<g>
			<path fill="#178FEB" d="M27.4,17.5c0,0,2.9-0.8,3.6-3.4C31,14.1,27.1,15.1,27.4,17.5z"/>
		</g>
	</g>
	<g>
		<g>
			<path fill="#178FEB" d="M27.7,15.1c0,0,2.9-0.9,2.6-4.1C30.2,11,26.9,13,27.7,15.1z"/>
		</g>
	</g>
</g>
</svg>
