<?xml version="1.0" encoding="utf-8"?>

<!DOCTYPE svg PUBLIC "-//W3C//DTD SVG 1.1//EN" "http://www.w3.org/Graphics/SVG/1.1/DTD/svg11.dtd">
<svg version="1.1" xmlns="http://www.w3.org/2000/svg" xmlns:xlink="http://www.w3.org/1999/xlink" width="1024" height="1024" viewBox="0 0 1024 1024">
<g id="icomoon-ignore">
</g>
<path fill="#000" d="M971.314 241.876c-19.31-26.336-46.234-57.124-75.8-86.69-29.564-29.566-60.352-56.484-86.688-75.798-44.842-32.884-66.594-36.686-79.056-36.686h-319.962c-38.356 0-69.556 31.204-69.556 69.558v791.926c0 38.354 31.2 69.556 69.556 69.556h528.636c38.354 0 69.556-31.204 69.556-69.556v-583.254c0-12.462-3.802-34.214-36.686-79.056zM856.168 194.534c26.694 26.694 47.646 50.776 63.106 70.752h-133.858v-133.852c19.984 15.46 44.064 36.412 70.752 63.1v0 0zM952.354 904.186c0 7.542-6.372 13.912-13.91 13.912h-528.636c-7.54 0-13.912-6.372-13.912-13.912v-791.926c0-7.54 6.372-13.912 13.912-13.912 0 0 319.924 0 319.962 0v194.76c0 15.366 12.458 27.824 27.824 27.824h194.76v583.254z"></path>
<path fill="#000" d="M715.362 422.666h-463.64v-160.102l-247.722 247.676 247.722 247.64v-173.84h463.64z"></path>
</svg>
