<svg xmlns="http://www.w3.org/2000/svg" viewBox="0 0 28 32"><defs><style>.cls-1{fill:#fff;}.cls-2{fill:none;stroke:#000;stroke-width:3px;}</style></defs><title>create-new-version</title><g id="Layer_2" data-name="Layer 2"><g id="Layer_1-2" data-name="Layer 1"><g id="IKONIT"><g id="luo-uusi-versio"><g id="Rectangle-3-Copy-2"><rect id="path-1" class="cls-1" width="28" height="32"/><rect class="cls-2" x="1.5" y="1.5" width="25" height="29"/></g><path id="Shape" d="M18,9.85l-2,1.37-2,1.36-.14-1.17A4.59,4.59,0,0,0,9.48,15.8a4.22,4.22,0,0,0,1.36,3.07L9.06,20.44A6.38,6.38,0,0,1,7,15.8a7,7,0,0,1,6.52-6.64L13.38,8l2.31.93Z"/><path id="Shape-2" data-name="Shape" d="M10,22.15l2-1.37,2-1.36.14,1.17a4.59,4.59,0,0,0,4.31-4.39,4.22,4.22,0,0,0-1.36-3.07l1.78-1.57A6.38,6.38,0,0,1,21,16.2a6.93,6.93,0,0,1-6.52,6.63L14.62,24l-2.31-.93Z"/></g></g></g></g></svg>