<?xml version="1.0" encoding="utf-8"?>
<!-- Generator: Adobe Illustrator 19.2.0, SVG Export Plug-In . SVG Version: 6.00 Build 0)  -->
<svg version="1.1" id="Layer_1" xmlns="http://www.w3.org/2000/svg" xmlns:xlink="http://www.w3.org/1999/xlink" x="0px" y="0px"
	 viewBox="0 0 31 31" enable-background="new 0 0 31 31" xml:space="preserve">
<g>
	<g>
		<g>
			<polygon fill="#178FEB" points="27,5 27,2 24,2 24,5 8,5 8,2 5,2 5,5 2,5 2,8 30,8 30,5 			"/>
		</g>
	</g>
	<g>
		<g>
			<path fill="#178FEB" d="M2,19v2v9h28v-9v-2v-9H2V19z M5,21h6v6H5V21z M19,21v6h-6v-6H19z M13,19v-6h6v6H13z M27,27h-6v-6h6V27z
				 M27,19h-6v-6h6V19z M11,13v6H5v-6H11z"/>
		</g>
	</g>
</g>
</svg>
