<?xml version="1.0" encoding="utf-8"?>
<!DOCTYPE svg PUBLIC "-//W3C//DTD SVG 1.1//EN" "http://www.w3.org/Graphics/SVG/1.1/DTD/svg11.dtd">
<svg version="1.1" xmlns="http://www.w3.org/2000/svg" xmlns:xlink="http://www.w3.org/1999/xlink" width="448" height="448" viewBox="0 0 448 448">
<path d="M222 296l29-29-38-38-29 29v14h24v24h14zM332 116q-4-4-8.25 0.25l-87.5 87.5q-4.25 4.25-0.25 8.25t8.25-0.25l87.5-87.5q4.25-4.25 0.25-8.25zM352 264.5v47.5q0 29.75-21.125 50.875t-50.875 21.125h-208q-29.75 0-50.875-21.125t-21.125-50.875v-208q0-29.75 21.125-50.875t50.875-21.125h208q15.75 0 29.25 6.25 3.75 1.75 4.5 5.75 0.75 4.25-2.25 7.25l-12.25 12.25q-3.5 3.5-8 2-5.75-1.5-11.25-1.5h-208q-16.5 0-28.25 11.75t-11.75 28.25v208q0 16.5 11.75 28.25t28.25 11.75h208q16.5 0 28.25-11.75t11.75-28.25v-31.5q0-3.25 2.25-5.5l16-16q3.75-3.75 8.75-1.75t5 7.25zM328 80l72 72-168 168h-72v-72zM439 113l-23 23-72-72 23-23q7-7 17-7t17 7l38 38q7 7 7 17t-7 17z"></path>
</svg>
