<svg xmlns="http://www.w3.org/2000/svg" viewBox="0 0 20 20"><title>Asset 7</title><g id="Layer_2" data-name="Layer 2"><g id="Layer_1-2" data-name="Layer 1"><path d="M10.25,6a2.31,2.31,0,0,0-1.61.57A2.71,2.71,0,0,0,7.82,8.2h3.24V9.62H7.7l0,.28v.38l0,.26h2.85V12H7.83a2.33,2.33,0,0,0,2.58,2,5.57,5.57,0,0,0,2.21-.46v2.06a5.23,5.23,0,0,1-2.35.47A4.89,4.89,0,0,1,7,14.93a4.77,4.77,0,0,1-1.6-3H4.33V10.54h1a3,3,0,0,1,0-.5l0-.42H4.33V8.2H5.4A4.89,4.89,0,0,1,7,5.13,4.8,4.8,0,0,1,10.25,4a6.23,6.23,0,0,1,2.83.66l-.79,1.86a10.51,10.51,0,0,0-1-.39A3.73,3.73,0,0,0,10.25,6Z"/><path d="M10,0A10,10,0,1,0,20,10,10,10,0,0,0,10,0Zm0,19.5c-4.42,0-8-4.25-8-9.5S5.58.5,10,.5s8,4.25,8,9.5S14.42,19.5,10,19.5Z"/></g></g></svg>