<?xml version="1.0" encoding="utf-8"?>
<!-- Generator: Adobe Illustrator 19.2.0, SVG Export Plug-In . SVG Version: 6.00 Build 0)  -->
<svg version="1.1" id="Layer_1" xmlns="http://www.w3.org/2000/svg" xmlns:xlink="http://www.w3.org/1999/xlink" x="0px" y="0px"
	 viewBox="0 0 31 31" enable-background="new 0 0 31 31" xml:space="preserve">
<g>
	<g>
		<g>
			<path fill="#178FEB" d="M22,7.1V3.2c0,0-1.5-0.2-3.2-0.2c-1.2,0-2.5,0.2-3.3,0.7c-0.6,0.3-1.7,1-2.3,2.8c-0.4,1-0.4,2.3-0.4,3.4
				c0,1.4,0,2.3,0,2.3l-3.9,0l0,4.5l3.9,0l0,11.4h4.5l0-11.4l3.8,0l0.6-4.4l-4.4,0c0,0-0.1-2.9,0-3.5c0.1-0.6,0.5-1.2,1.1-1.4
				C19.1,7.2,22,7.1,22,7.1z"/>
		</g>
	</g>
</g>
</svg>
