<svg xmlns="http://www.w3.org/2000/svg" viewBox="0 0 28 32"><defs><style>.cls-1{fill:none;stroke:#000;stroke-width:2px;}</style></defs><title>file-numbers</title><g id="Layer_2" data-name="Layer 2"><g id="Layer_1-2" data-name="Layer 1"><g id="Layer_2-2" data-name="Layer 2"><g id="Layer_1-2-2" data-name="Layer 1-2"><g id="IKONIT"><g id="numeerinen-vastapalaute"><path id="Rectangle-4" class="cls-1" d="M3,1A2,2,0,0,0,1,3V29a2,2,0,0,0,2,2H25a2,2,0,0,0,2-2V9.37a2,2,0,0,0-.62-1.45L19.69,1.55A2,2,0,0,0,18.31,1Z"/><path id="Rectangle" class="cls-1" d="M19.74,2.46V7.8h5.6Z"/><rect id="Rectangle-5" x="5" y="21.33" width="4" height="5.82"/><rect id="Rectangle-5-Copy" x="10" y="18.42" width="4" height="8.73"/><rect id="Rectangle-5-Copy-2" x="15" y="13.58" width="4" height="13.58"/><rect id="Rectangle-5-Copy-3" x="20" y="21.33" width="4" height="5.82"/></g></g></g></g></g></g></svg>