<?xml version="1.0" encoding="utf-8"?>
<svg version="1.1" id="Layer_1" xmlns="http://www.w3.org/2000/svg" xmlns:xlink="http://www.w3.org/1999/xlink" x="0px" y="0px"
     viewBox="0 0 31 31" enable-background="new 0 0 31 31" xml:space="preserve">
  <polygon fill="#0098D0" points="2,2 11,2 11,5 7.5,5 12.5,10 10,12.5 5,7.5 5,11 2,11" />
  <polygon fill="#0098D0" points="29,2 20,2 20,5 23.5,5 18.5,10 21,12.5 26,7.5 26,11 29,11" />
  <polygon fill="#0098D0" points="2,29 11,29 11,26 7.5,26 12.5,21 10,18.5 5,23.5 5,20 2,20" />
  <polygon fill="#0098D0" points="29,29 20,29 20,26 23.5,26 18.5,21 21,18.5 26,23.5 26,20 29,20" />
</svg>
