<?xml version="1.0" encoding="utf-8"?>
<!-- Generator: Adobe Illustrator 20.1.0, SVG Export Plug-In . SVG Version: 6.00 Build 0)  -->
<svg version="1.1" id="Layer_1" xmlns="http://www.w3.org/2000/svg" xmlns:xlink="http://www.w3.org/1999/xlink" x="0px" y="0px"
	 viewBox="0 0 31 31" style="enable-background:new 0 0 31 31;" xml:space="preserve">
<path d="M30,10.1c0-7.5-5.4-8.5-7.2-8.5c-4.1,0-6.5,3.6-7.3,4.7c-0.9-1.1-3.3-4.7-7.3-4.7c-1.8,0-7.2,1-7.2,8.5
	c0,8.9,8.9,16,12.3,18.3c0,0,0.2,0.2,0.2,0.2c0.5,0.3,0.8,0.5,0.9,0.6c0,0,0.4,0.2,0.7,0.3c0.1,0,0.2,0,0.3,0c0.1,0,0.2,0,0.3,0
	c0.3-0.1,0.7-0.2,0.7-0.3c0.1-0.1,0.5-0.3,0.9-0.6c0,0,0.2-0.2,0.2-0.2C21.1,26,30,18.9,30,10.1z"/>
</svg>
