<?xml version="1.0" encoding="utf-8"?>
<!DOCTYPE svg PUBLIC "-//W3C//DTD SVG 1.1//EN" "http://www.w3.org/Graphics/SVG/1.1/DTD/svg11.dtd">
<svg version="1.1" xmlns="http://www.w3.org/2000/svg" xmlns:xlink="http://www.w3.org/1999/xlink" width="1024" height="1024" viewBox="0 0 1024 1024">
<path fill="#000" d="M465.264 895.238h95.646v95.646h-95.646v-95.646z"></path>
<path fill="#000" d="M465.264 34.484h95.646v95.646h-95.646v-95.646z"></path>
<path fill="#000" d="M851.94 543.042c-24.758-16.152-34.796-48.586-38.706-75.662-24.394 2.522-64.988 2.894-84.37-46.4-15.26-38.77-8.932-102.996-59.938-157.416-46.398-49.478-103.478-65.78-155.842-62.114 64.18 42.91 38.872 107.62-7.732 107.62-64.876 0-83.020-78.134-177.976-78.134-21.716 0-40.846 6.782-52.792 14.672 53.182 6.708 65.91 50.316 82.528 89.784 13.212 31.374 36.826 49.628 71.408 59.21-6.244 3.582-21.166 7.992-40.462 7.992-41.942 0-71.158-22.060-101.19-53.004-26.424-27.234-55.908-53.034-105.34-53.034-24.312 0-42.928 7.704-49.386 12.048 27.148 4.27 67.222 20.442 67.222 49.144 0 24.544-27.14 33.932-49.396 10.448-24.75-26.144-59.508-45.924-99.292-45.924-19.65 0-39.318 6.262-47.674 14.402 47.154 5.424 75.084 35.708 104.28 103.21 16.468 38.12 39.932 74.124 99.004 74.814 26.898 0.316 65.072-12.468 87.486 9.034 21.194 20.348 14.068 47.050 23.8 68.71 12.188 27.206 37.496 41.216 86.984 43.802-41.050 34.362-139.17 13.734-172.6-21.342 4.392 87.838 73.708 166.672 211.276 129.606 23.92-6.44 40.994-2.792 50.186 21.398 12.634 33.214 42.556 38.742 70.84 35.224 64.664-8.002 103.034 5.006 140.268 49.478 8.114-73.576-44.472-116.802-77.502-137.466-31.466-19.678-34.538-40.146-34.928-55.992 22.768 26.042 52.438 37.096 83.326 41.432 53.386 7.518 91.618 22.404 111.864 51.024 5.898-80.888-79-99.162-89.422-133.178 26.722 17.426 46.4 23.762 74.228 21.64 37.114-2.8 82.248-31.932 115.53 25.084 42.48-27.606 98.148-17.772 135.532 6.41-36.808-80.966-119.466-92.766-171.214-126.52zM560.908 560.506h-95.646v-95.636h95.646v95.636z"></path>
</svg>
