<?xml version="1.0" encoding="utf-8"?>
<!DOCTYPE svg PUBLIC "-//W3C//DTD SVG 1.1//EN" "http://www.w3.org/Graphics/SVG/1.1/DTD/svg11.dtd">
<svg version="1.1" xmlns="http://www.w3.org/2000/svg" xmlns:xlink="http://www.w3.org/1999/xlink" width="576" height="512" viewBox="0 0 576 512">
<path d="M544 64h-32v-32c0-17.6-14.4-32-32-32h-448c-17.6 0-32 14.4-32 32v384c0 17.6 14.4 32 32 32h32v32c0 17.6 14.4 32 32 32h448c17.6 0 32-14.4 32-32v-384c0-17.6-14.4-32-32-32zM64 96v320h-31.943c-0.020-0.017-0.041-0.038-0.057-0.058v-383.885c0.017-0.020 0.038-0.041 0.057-0.057h447.885c0.020 0.017 0.041 0.038 0.058 0.058v31.942h-384c-17.6 0-32 14.4-32 32v0zM544 479.942c-0.017 0.020-0.038 0.041-0.058 0.058h-447.885c-0.020-0.017-0.041-0.038-0.057-0.058v-383.885c0.017-0.020 0.038-0.041 0.057-0.057h447.885c0.020 0.017 0.041 0.038 0.058 0.058v383.884z"></path>
<path d="M480 176c0 26.51-21.49 48-48 48s-48-21.49-48-48 21.49-48 48-48 48 21.49 48 48z"></path>
<path d="M512 448h-384v-64l112-192 128 160h32l112-96z"></path>
</svg>
