<svg xmlns="http://www.w3.org/2000/svg" viewBox="0 0 32 30">
  <title>parts-one</title>
  <path
          id="Rectangle-3-Copy-2"
          d="M 9.1440678,2 C 3.8050847,1.8728814 0,2 0,2 V 3.5 30 H 32 V 2 L 22.355932,2.1271186 22.5,5 H 29 V 27 H 3 V 5 h 6.1186441 z" />
  <path
     id="rect6"
     d="M 12.5,0 C 10.586946,0 9,1.5869458 9,3.5 v 1 C 9,6.4130542 10.586946,8 12.5,8 h 7 C 21.413054,8 23,6.4130542 23,4.5 v -1 C 23,1.5869458 21.413054,0 19.5,0 Z m 0,3 h 7 C 19.802946,3 20,3.1970542 20,3.5 v 1 C 20,4.8029458 19.802946,5 19.5,5 h -7 C 12.197054,5 12,4.8029458 12,4.5 v -1 C 12,3.1970542 12.197054,3 12.5,3 Z" />
  <rect
          height="6"
          width="10"
          y="10"
          x="5"
          id="Rectangle-2-Copy-3" />
</svg>
