<svg xmlns="http://www.w3.org/2000/svg" viewBox="0 0 28 34">
    <title>parts-all</title>

  <title
     id="title2">questionnaire-close</title>
  <path
     id="rect5"
     d="M 19.806665,5 H 25 V 31 H 3 V 5 L 8.0925147,4.8981287 8.1205845,2 H 0 V 3.5 34 H 28 V 2 L 19.704794,1.8981287 Z" />
  <path
     id="rect8"
     d="M 10.5,-4.9158201e-8 C 8.5869458,-4.9158201e-8 7,1.5869459 7,3.5000003 v 1 c 0,1.913054 1.5869458,3.5 3.5,3.5 h 7 c 1.913054,0 3.5,-1.586946 3.5,-3.5 v -1 C 21,1.5869459 19.413054,-4.9158201e-8 17.5,-4.9158201e-8 Z M 10.5,3.0000003 h 7 c 0.302946,0 0.5,0.197054 0.5,0.5 v 1 c 0,0.302946 -0.197054,0.5 -0.5,0.5 h -7 c -0.302946,0 -0.5,-0.197054 -0.5,-0.5 v -1 c 0,-0.302946 0.197054,-0.5 0.5,-0.5 z" />
  <path
     id="Line-2"
     d="M 16.939453,13.878906 15.878906,14.939453 9.9394531,20.878906 8.8789062,21.939453 11,24.060547 12.060547,23 18,17.060547 19.060547,16 Z" />
  <path
     id="Line-2-Copy"
     d="M 11,13.878906 8.8789062,16 9.9394531,17.060547 15.878906,23 16.939453,24.060547 19.060547,21.939453 18,20.878906 12.060547,14.939453 Z" />
</svg>
