<?xml version="1.0" encoding="utf-8"?>
<!DOCTYPE svg PUBLIC "-//W3C//DTD SVG 1.1//EN" "http://www.w3.org/Graphics/SVG/1.1/DTD/svg11.dtd">
<svg version="1.1" xmlns="http://www.w3.org/2000/svg" xmlns:xlink="http://www.w3.org/1999/xlink" width="448" height="448" viewBox="0 0 448 448">
<path d="M87.25 156.25v247.75h-82.5v-247.75h82.5zM92.5 79.75q0.25 18.25-12.625 30.5t-33.875 12.25h-0.5q-20.5 0-33-12.25t-12.5-30.5q0-18.5 12.875-30.625t33.625-12.125 33.25 12.125 12.75 30.625zM384 262v142h-82.25v-132.5q0-26.25-10.125-41.125t-31.625-14.875q-15.75 0-26.375 8.625t-15.875 21.375q-2.75 7.5-2.75 20.25v138.25h-82.25q0.5-99.75 0.5-161.75t-0.25-74l-0.25-12h82.25v36h-0.5q5-8 10.25-14t14.125-13 21.75-10.875 28.625-3.875q42.75 0 68.75 28.375t26 83.125z"></path>
</svg>
