<?xml version="1.0" encoding="utf-8"?>
<!DOCTYPE svg PUBLIC "-//W3C//DTD SVG 1.1//EN" "http://www.w3.org/Graphics/SVG/1.1/DTD/svg11.dtd">
<svg version="1.1" xmlns="http://www.w3.org/2000/svg" xmlns:xlink="http://www.w3.org/1999/xlink" width="1024" height="1024" viewBox="0 0 1024 1024">
<path fill="#000" d="M655.362 422.666h-423.64v-160.102l-227.722 247.676 227.722 247.64v-173.84h423.64z"></path>
<path fill="#000" d="M987.314 341.876c-16.68-22.748-39.044-48.814-63.878-74.546-1.39-2.13-2.858-4.324-4.408-6.584-2.378-3.468-4.934-7.080-7.712-10.868-19.31-26.336-46.234-57.124-75.8-86.69-29.564-29.566-60.352-56.484-86.688-75.798-44.842-32.884-66.594-36.686-79.056-36.686h-319.964c-38.356 0-69.556 31.204-69.556 69.558v691.926c0 38.354 31.2 69.556 69.556 69.556h6.444v22.444c0 38.354 31.2 69.556 69.556 69.556h528.636c38.354 0 69.556-31.204 69.556-69.556v-483.256c0-12.462-3.802-34.214-36.686-79.056zM729.594 142.702c19.128 15.102 41.716 34.976 66.574 59.832 26.694 26.694 47.646 50.776 63.106 70.752h-133.858v-130.584h4.178zM358.25 826.098h-8.444c-7.54 0-13.912-6.372-13.912-13.912v-691.926c0-7.54 6.372-13.912 13.912-13.912 0 0 319.924 0 319.962 0v194.76c0 15.366 12.458 27.824 27.824 27.824h194.76v483.254c0 7.542-6.372 13.912-13.91 13.912h-520.192zM968.354 904.186c0 7.542-6.372 13.912-13.91 13.912h-528.636c-7.54 0-13.912-6.372-13.912-13.912v-22.444h466.548c38.354 0 69.556-31.204 69.556-69.556v-391.254h20.354v483.254z"></path>
</svg>
