<?xml version="1.0" encoding="utf-8"?>
<!-- Generator: Adobe Illustrator 19.2.0, SVG Export Plug-In . SVG Version: 6.00 Build 0)  -->
<svg version="1.1" id="Layer_1" xmlns="http://www.w3.org/2000/svg" xmlns:xlink="http://www.w3.org/1999/xlink" x="0px" y="0px"
	 viewBox="0 0 31 31" enable-background="new 0 0 31 31" xml:space="preserve">
<g>
	<g>
		<g>
			<g>
				<path fill="#178FEB" d="M15.5,1C9.1,1,4,6.2,4,12.6c0,2.1,0.5,4.2,1.5,5.7l0.1,0.1c0.2,0.4,1.3,1.8,2.7,3.5c3,3.4,7.2,8,7.2,8
					s4.3-4.7,7.2-8.1c1.4-1.6,2.4-3,2.6-3.3l0.2-0.2c0.9-1.5,1.5-3.7,1.5-5.7C27,6.2,21.9,1,15.5,1z M15.5,21C10.8,21,7,17.2,7,12.5
					S10.8,4,15.5,4S24,7.8,24,12.5S20.2,21,15.5,21z"/>
			</g>
		</g>
	</g>
	<g>
		<g>
			<g>
				<circle fill="#178FEB" cx="15.5" cy="12.5" r="4.5"/>
			</g>
		</g>
	</g>
</g>
</svg>
