<?xml version="1.0" encoding="utf-8"?>
<!-- Generator: Adobe Illustrator 19.2.0, SVG Export Plug-In . SVG Version: 6.00 Build 0)  -->
<svg version="1.1" id="Layer_1" xmlns="http://www.w3.org/2000/svg" xmlns:xlink="http://www.w3.org/1999/xlink" x="0px" y="0px"
	 viewBox="0 0 31 31" enable-background="new 0 0 31 31" xml:space="preserve">
<g>
	<path fill="#178FEB" d="M29.7,26.3L23.5,20c1.6-2.2,2.5-4.8,2.5-7.5C26,5.6,20.4,0,13.5,0S1,5.6,1,12.5S6.6,25,13.5,25
		c2.2,0,4.4-0.6,6.3-1.7l6.4,6.4l0.7,0.7l0.7-0.7l2-2l0.7-0.7L29.7,26.3z M13.5,5c4.1,0,7.5,3.4,7.5,7.5S17.6,20,13.5,20
		S6,16.6,6,12.5S9.4,5,13.5,5z"/>
	<rect x="9" y="11" fill="#178FEB" width="9" height="3"/>
</g>
</svg>
