<?xml version="1.0" encoding="utf-8"?>
<!-- Generator: Adobe Illustrator 19.2.0, SVG Export Plug-In . SVG Version: 6.00 Build 0)  -->
<svg version="1.1" id="Layer_1" xmlns="http://www.w3.org/2000/svg" xmlns:xlink="http://www.w3.org/1999/xlink" x="0px" y="0px"
	 viewBox="0 0 31 31" enable-background="new 0 0 31 31" xml:space="preserve">
<g>
	<g>
		<g>
			<circle fill="#178FEB" cx="13.5" cy="12.4" r="7"/>
		</g>
	</g>
	<g>
		<g>
			<path fill="#178FEB" d="M13.8,23.4c-2.2,0.1-4.3-0.4-6.4-1.5l-2.8,5.3c2.8,1.5,5.7,2.3,8.7,2.3c0.3,0,0.5,0,0.8,0
				c2.9-0.1,5.7-1,8.4-2.5l-3-5.2C17.7,22.7,15.7,23.3,13.8,23.4z"/>
		</g>
	</g>
	<g>
		<g>
			<polygon fill="#178FEB" points="29,3 26,3 26,0 23,0 23,3 20,3 20,6 23,6 23,9 26,9 26,6 29,6 			"/>
		</g>
	</g>
</g>
</svg>
