<?xml version="1.0" encoding="utf-8"?>
<!-- Generator: Adobe Illustrator 19.2.0, SVG Export Plug-In . SVG Version: 6.00 Build 0)  -->
<svg version="1.1" id="Layer_1" xmlns="http://www.w3.org/2000/svg" xmlns:xlink="http://www.w3.org/1999/xlink" x="0px" y="0px"
	 viewBox="0 0 31 31" enable-background="new 0 0 31 31" xml:space="preserve">
<g>
	<g>
		<g>
			<path fill="#178FEB" d="M27.7,10.1c-0.5-0.6-1.2-1.3-2.2-1.7c0.2-0.1,0.3-0.3,0.4-0.5c0.5-0.6,0.7-1.4,0.7-2.3
				c0-0.9-0.2-1.7-0.7-2.3c-0.5-0.7-1.3-1.1-2.2-1.1c-0.9,0-1.7,0.4-2.2,1.1C21,4,20.8,4.8,20.8,5.7c0,0.9,0.3,1.7,0.7,2.3
				c0.1,0.2,0.3,0.3,0.4,0.4c-1,0.4-1.7,1-2.2,1.5c0,0,0,0,0,0.1c0,0,0,0,0-0.1c-0.5-0.5-1.2-1.1-2.2-1.5c0.1-0.1,0.3-0.3,0.4-0.4
				c0.5-0.6,0.7-1.4,0.7-2.3c0-0.9-0.3-1.7-0.7-2.3c-0.5-0.7-1.3-1.1-2.2-1.1c-0.9,0-1.7,0.4-2.2,1.1c-0.5,0.6-0.7,1.4-0.7,2.3
				c0,0.9,0.3,1.7,0.7,2.3c0.1,0.2,0.3,0.3,0.4,0.4c-1,0.4-1.7,1-2.2,1.5c0,0,0,0,0,0.1c0,0,0,0,0-0.1c-0.5-0.5-1.2-1.1-2.2-1.5
				C9.3,8.3,9.5,8.2,9.6,8c0.5-0.6,0.7-1.4,0.7-2.3c0-0.9-0.3-1.7-0.7-2.3C9,2.6,8.3,2.2,7.3,2.2c-0.9,0-1.7,0.4-2.2,1.1
				C4.7,4,4.4,4.8,4.4,5.7c0,0.9,0.3,1.7,0.7,2.3c0.1,0.2,0.3,0.3,0.4,0.5c-1.6,0.6-2.7,2-3.2,3.3c-0.1,0.2,0,0.5,0.3,0.6
				c0.2,0.1,0.5,0,0.6-0.3c0.3-0.8,0.8-1.5,1.5-2.1c0.8-0.6,1.7-0.9,2.6-0.9c1.7,0,2.7,0.8,3.3,1.5c0.1,0.1,0.1,0.1,0.2,0.2
				c-0.5,0.8-0.7,1.6-0.7,2.4c0,0.9,0.1,1.4,0.4,1.7c0.3,0.3,0.6,0.3,0.8,0.3c0,0,0.1,0,0.1,0c0.2,0,0.5,0,0.8-0.3
				c0.3-0.3,0.4-0.8,0.4-1.7c0-0.8-0.3-1.6-0.7-2.4c0.1-0.1,0.1-0.2,0.2-0.2c0.6-0.7,1.6-1.5,3.3-1.5s2.7,0.8,3.3,1.5
				c0.1,0.1,0.1,0.1,0.2,0.2c-0.5,0.8-0.7,1.6-0.7,2.4c0,0.9,0.1,1.4,0.4,1.7c0.3,0.3,0.6,0.3,0.8,0.3c0,0,0.1,0,0.1,0
				c0.2,0,0.5,0,0.8-0.3c0.3-0.3,0.4-0.8,0.4-1.7c0-0.8-0.3-1.6-0.7-2.4c0.1-0.1,0.1-0.2,0.2-0.2C21,9.9,22,9.1,23.7,9.1
				c1.6,0,2.7,0.9,3.3,1.6c0.8,1,1.1,2.1,1.1,2.8c0,1.3-0.8,1.6-1.4,1.9c-0.5,0.2-2.1,0.3-3.6,0.3c-1.7,0.1-3.6,0.2-5.1,0.4
				C17.2,16.4,16,17,16,19.4s0,8.1,0,8.1c0,0.2-0.3,0.3-0.5,0.3S15,27.7,15,27.5c0,0,0-5.7,0-8.1s-1.1-3-2-3.1
				c-1.5-0.3-3.4-0.4-5.1-0.4c-1.5-0.1-3-0.1-3.5-0.3c-0.6-0.3-1.2-0.6-1.4-1.5c0-0.3-0.2-0.5-0.5-0.5h0C2.1,13.5,2,13.7,2,14v9.7
				c0,2,1.3,2.5,2,2.8c0.7,0.3,2.1,0.3,3.9,0.4c1.7,0.1,3.5,0.1,5,0.4c1.4,0.3,2,0.6,2.1,1c0,0,0,0.1,0.1,0.1
				c0.1,0.2,0.3,0.3,0.5,0.3c0.2,0,0.4-0.1,0.5-0.3c0,0,0.1-0.1,0.1-0.1c0.1-0.3,0.7-0.7,2.1-1c1.5-0.3,3.3-0.4,5-0.4
				c1.8-0.1,3.2-0.1,3.9-0.4c0.7-0.3,1.7-0.8,1.9-2.4c0-0.1-0.1-0.3-0.1-0.4V13.5C28.9,12.4,28.5,11.1,27.7,10.1z M7.3,8.1
				c-1.4,0-2-1.3-2-2.5c0-1.2,0.6-2.5,2-2.5c1.4,0,2,1.3,2,2.5C9.3,6.9,8.7,8.1,7.3,8.1z M11.6,14.2c0,0-0.1,0.1-0.2,0.1
				c-0.1,0-0.2-0.1-0.2-0.1c0-0.1-0.1-0.3-0.1-1c0-0.4,0.1-0.9,0.3-1.4c0.2,0.5,0.3,1,0.3,1.4C11.8,13.9,11.7,14.2,11.6,14.2z
				 M15.5,8.1c-1.4,0-2-1.3-2-2.5c0-0.7,0.2-1.3,0.5-1.7c0.4-0.5,0.8-0.7,1.5-0.7c1.4,0,2,1.3,2,2.5c0,0.7-0.2,1.3-0.5,1.7
				C16.6,7.9,16.1,8.1,15.5,8.1z M19.8,14.2c0,0-0.1,0.1-0.2,0.1c-0.1,0-0.2-0.1-0.2-0.1c0-0.1-0.1-0.3-0.1-1c0-0.4,0.1-0.9,0.3-1.4
				c0.2,0.5,0.3,1,0.3,1.4C20,13.9,19.9,14.1,19.8,14.2z M23.7,8.1c-1.4,0-2-1.3-2-2.5c0-0.7,0.2-1.3,0.5-1.7
				c0.4-0.5,0.8-0.7,1.5-0.7c1.4,0,2,1.3,2,2.5C25.7,6.9,25.1,8.1,23.7,8.1z M11,23H6v-1h5V23z M11,21H6v-1h5V21z M25,23h-5v-1h5V23
				z M25,21h-5v-1h5V21z"/>
		</g>
	</g>
</g>
</svg>
