<?xml version="1.0" encoding="utf-8"?>
<!-- Generator: Adobe Illustrator 19.1.0, SVG Export Plug-In . SVG Version: 6.00 Build 0)  -->
<svg version="1.1" id="Layer_1" xmlns="http://www.w3.org/2000/svg" xmlns:xlink="http://www.w3.org/1999/xlink" x="0px" y="0px"
	 viewBox="0 0 31 31" enable-background="new 0 0 31 31" xml:space="preserve">
<g>
	<g>
		<g>
			<path fill="#178FEB" d="M20.1,15c-2.3,0-4.2,1.8-4.5,4c-0.2-2.3-2.1-4-4.5-4H3v5.9C3,23.4,5.2,25,7.6,25h7.9h0H25
				c2.5,0,3-1.6,3-4.1V15H20.1z M11,21H6v-1h5V21z M11,19H6v-1h5V19z M25,21h-5v-1h5V21z M25,19h-5v-1h5V19z"/>
		</g>
	</g>
	<g>
		<g>
			<g>
				<ellipse fill="#178FEB" cx="15.5" cy="4.5" rx="2" ry="2"/>
			</g>
		</g>
		<g>
			<g>
				<ellipse fill="#178FEB" cx="15.5" cy="12.9" rx="2" ry="2"/>
			</g>
		</g>
		<g>
			<g>
				<g>
					<ellipse fill="#178FEB" cx="10" cy="8.9" rx="3" ry="3"/>
				</g>
			</g>
			<g>
				<g>
					<ellipse fill="#178FEB" cx="21" cy="8.9" rx="3" ry="3"/>
				</g>
			</g>
		</g>
	</g>
	<g>
		<g>
			<polygon fill-rule="evenodd" clip-rule="evenodd" fill="#178FEB" points="17.5,25.1 15.5,28.5 13.5,25.1 			"/>
		</g>
	</g>
</g>
</svg>
