<?xml version="1.0" encoding="utf-8"?>
<!-- Generator: Adobe Illustrator 19.2.0, SVG Export Plug-In . SVG Version: 6.00 Build 0)  -->
<svg version="1.1" id="Layer_1" xmlns="http://www.w3.org/2000/svg" xmlns:xlink="http://www.w3.org/1999/xlink" x="0px" y="0px"
	 viewBox="0 0 31 31" enable-background="new 0 0 31 31" xml:space="preserve">
<g>
	<g>
		<path fill="#178FEB" d="M25,13V9.5C25,4.3,20.7,0,15.5,0S6,4.3,6,9.5V13H4v18h23V13H25z M9,9.5C9,5.9,11.9,3,15.5,3S22,5.9,22,9.5
			V13H9V9.5z M17.3,22.5V26h-3.6v-3.5c-0.7-0.5-1.2-1.2-1.2-2c0-1.4,1.4-2.5,3-2.5s3,1.1,3,2.5C18.5,21.3,18,22,17.3,22.5z"/>
	</g>
</g>
</svg>
