<?xml version="1.0" encoding="utf-8"?>
<!-- Generator: Adobe Illustrator 19.2.0, SVG Export Plug-In . SVG Version: 6.00 Build 0)  -->
<svg version="1.1" id="Layer_1" xmlns="http://www.w3.org/2000/svg" xmlns:xlink="http://www.w3.org/1999/xlink" x="0px" y="0px"
	 viewBox="0 0 31 31" enable-background="new 0 0 31 31" xml:space="preserve">
<path fill="#178FEB" d="M26.2,4.3C23.1,1.3,19-0.2,14.8,0C6.9,0.4,0.4,6.9,0,14.8c-0.2,4.3,1.3,8.3,4.3,11.4c3,3.1,6.9,4.8,11.2,4.8
	H16v-2.9h-0.5c-3.5,0-6.7-1.4-9.1-3.9c-2.4-2.5-3.6-5.8-3.5-9.3c0.3-6.4,5.5-11.7,12-12c3.5-0.2,6.8,1.1,9.3,3.5
	c2.5,2.4,3.9,5.6,3.9,9.1c0,2.3-1.4,4.5-3.4,5.5c0-0.2,0.1-0.4,0.1-0.6c0-0.3,0.1-0.5,0.1-0.8c0.3-1.1-2-2.1-3.1-2.4
	c-1.8-0.5-2.3,0.1-2.4,0.6c0,0.1-0.1,0.4-0.2,0.7c-0.1,0.4-0.3,1.2-0.4,1.3c-0.1,0-0.3,0-0.5-0.2c-0.7-0.6-1.4-1.4-2.1-2.1
	c-0.3-0.3-0.6-0.6-0.9-0.9l-0.2-0.2c-0.3-0.3-0.6-0.6-0.9-0.9c-0.8-0.7-1.5-1.5-2.1-2.1c-0.2-0.2-0.2-0.5-0.2-0.5
	c0.2-0.1,1-0.3,1.3-0.4c0.3-0.1,0.5-0.1,0.7-0.2c0.4-0.1,1-0.6,0.6-2.4c-0.3-1.1-1.3-3.3-2.4-3.1c-0.3,0.1-0.5,0.1-0.8,0.1
	c-0.5,0.1-1,0.2-1.5,0.4C9.6,7.4,9.5,7.5,9.3,7.6c-1.2,0.8-2,2-2.2,3.5C6.8,13,7.5,15,8.8,16.6c0.8,0.9,1.6,1.8,2.5,2.8l0,0l0.9,1
	l0,0c0.1,0.1,0.2,0.2,0.4,0.4c0.9,0.9,2,2,3.6,3.1c0.1,0,1.7,0.8,3.6,0.7l2.1,0c5,0,9.1-4.1,9.1-9.1C31,11.2,29.3,7.2,26.2,4.3z
	 M14.9,16.8L14.9,16.8L14.9,16.8L14.9,16.8z"/>
</svg>
