<?xml version="1.0" encoding="utf-8"?>
<!-- Generator: Adobe Illustrator 19.2.0, SVG Export Plug-In . SVG Version: 6.00 Build 0)  -->
<svg version="1.1" id="Layer_1" xmlns="http://www.w3.org/2000/svg" xmlns:xlink="http://www.w3.org/1999/xlink" x="0px" y="0px"
	 viewBox="0 0 31 31" enable-background="new 0 0 31 31" xml:space="preserve">
<g>
	<g>
		<g>
			<g>
				<path fill="#178FEB" d="M28,7v17H3V7H28 M31,4H0v23h31V4L31,4z"/>
			</g>
		</g>
	</g>
	<g>
		<g>
			<g>
				<g>
					<rect x="6" y="17" fill="#178FEB" width="8" height="2"/>
				</g>
			</g>
		</g>
	</g>
	<g>
		<g>
			<g>
				<g>
					<rect x="6" y="20" fill="#178FEB" width="8" height="2"/>
				</g>
			</g>
		</g>
	</g>
	<g>
		<g>
			<g>
				<g>
					<rect x="6" y="9" fill="#178FEB" width="8" height="2"/>
				</g>
			</g>
		</g>
	</g>
	<g>
		<g>
			<g>
				<g>
					<rect x="6" y="12" fill="#178FEB" width="8" height="2"/>
				</g>
			</g>
		</g>
	</g>
	<g>
		<g>
			<g>
				<g>
					<circle fill="#178FEB" cx="21.4" cy="13.4" r="3.4"/>
				</g>
			</g>
		</g>
		<g>
			<g>
				<g>
					<path fill="#178FEB" d="M21.3,22c-1.5,0-2.9-0.4-4.3-1.1l1.9-3.5c0.9,0.5,1.8,0.7,2.7,0.6c0.8,0,1.6-0.3,2.4-0.7l2,3.5
						c-1.3,0.8-2.8,1.2-4.2,1.3C21.6,22,21.4,22,21.3,22z"/>
				</g>
			</g>
		</g>
	</g>
</g>
</svg>
