<?xml version="1.0" encoding="utf-8"?>
<!-- Generator: Adobe Illustrator 19.2.0, SVG Export Plug-In . SVG Version: 6.00 Build 0)  -->
<svg version="1.1" id="Layer_1" xmlns="http://www.w3.org/2000/svg" xmlns:xlink="http://www.w3.org/1999/xlink" x="0px" y="0px"
	 viewBox="0 0 31 31" enable-background="new 0 0 31 31" xml:space="preserve">
<g>
	<g>
		<path fill="#178FEB" d="M15.5,2C8,2,2,8,2,15.5C2,23,8,29,15.5,29S29,23,29,15.5C29,8,23,2,15.5,2z M16.8,21.5h-2.1v-2.1h2.1V21.5
			z M19.8,13.1c0,2.1-1.4,3.1-3,3.5l0,1.4h-2.2v-3c1.9-0.2,2.8-0.8,2.8-1.8v0c0-0.8-0.6-1.3-1.5-1.3c-0.9,0-1.6,0.5-2.2,1.1
			l-1.5-1.8c1-1,2.1-1.6,3.7-1.6C18.3,9.5,19.8,10.8,19.8,13.1L19.8,13.1z"/>
	</g>
</g>
</svg>
