<svg xmlns="http://www.w3.org/2000/svg" viewBox="0 0 28 34">
  <title
     id="title2">questionnaire-edit</title>
  <path id="rect5" d="M 19.806665,5 H 25 V 31 H 3 V 5 L 8.0925147,4.8981287 8.1205845,2 H 0 V 3.5 34 H 28 V 2 L 19.704794,1.8981287 Z" />
  <path id="rect8" d="M 10.5,-4.9158201e-8 C 8.5869458,-4.9158201e-8 7,1.5869459 7,3.5000003 v 1 c 0,1.913054 1.5869458,3.5 3.5,3.5 h 7 c 1.913054,0 3.5,-1.586946 3.5,-3.5 v -1 C 21,1.5869459 19.413054,-4.9158201e-8 17.5,-4.9158201e-8 Z M 10.5,3.0000003 h 7 c 0.302946,0 0.5,0.197054 0.5,0.5 v 1 c 0,0.302946 -0.197054,0.5 -0.5,0.5 h -7 c -0.302946,0 -0.5,-0.197054 -0.5,-0.5 v -1 c 0,-0.302946 0.197054,-0.5 0.5,-0.5 z" />
  <path
     fill="#000" stroke="none" stroke-width="1"
     d="m 9.6767951,18.89066 5.8904389,-7.274086 0.909261,0.736305 -5.890439,7.274086 z" />
  <path
     fill="#000" stroke="none" stroke-width="1"
     d="m 11.494563,20.361355 5.890438,-7.274086 0.909261,0.736305 -5.890438,7.274086 z" />
  <path
     fill="#000" stroke="none" stroke-width="1"
     d="m 13.320102,21.838344 5.890438,-7.274086 0.909261,0.736305 -5.890438,7.274086 z" />
  <path
     fill="#000" stroke="none" stroke-width="1"
     d="m 8.27,25.28 0.68,-5.48 4.54,3.68 z" />
</svg>
