<?xml version="1.0" encoding="utf-8"?>
<!-- Generator: Adobe Illustrator 20.1.0, SVG Export Plug-In . SVG Version: 6.00 Build 0)  -->
<svg version="1.1" id="Layer_1" xmlns="http://www.w3.org/2000/svg" xmlns:xlink="http://www.w3.org/1999/xlink" x="0px" y="0px"
	 viewBox="0 0 31 31" style="enable-background:new 0 0 31 31;" xml:space="preserve">
<g>
	<path d="M15.7,27.2c0.5,0,0.9-0.4,0.9-0.9v-2.6c0-0.5-0.4-0.9-0.9-0.9H9c-0.5,0-0.9-0.4-0.9-0.9V9.1c0-0.5,0.4-0.9,0.9-0.9h2.5
		c0.5,0,0.7-0.3,0.4-0.7L6.7,0.5c-0.3-0.4-0.8-0.4-1.1,0L0.3,7.4C0,7.8,0.1,8.1,0.6,8.1h2.5c0.5,0,0.9,0.4,0.9,0.9v17.3
		c0,0.5,0.4,0.9,0.9,0.9H15.7z"/>
	<path d="M15.3,3.7c-0.5,0-0.9,0.4-0.9,0.9v2.6c0,0.5,0.4,0.9,0.9,0.9h6.7c0.5,0,0.9,0.4,0.9,0.9v12.9c0,0.5-0.4,0.9-0.9,0.9h-2.5
		c-0.5,0-0.7,0.3-0.4,0.7l5.1,6.9c0.3,0.4,0.8,0.4,1.1,0l5.3-6.9c0.3-0.4,0.1-0.7-0.3-0.7h-2.5c-0.5,0-0.9-0.4-0.9-0.9V4.6
		c0-0.5-0.4-0.9-0.9-0.9H15.3z"/>
</g>
</svg>
