<?xml version="1.0" encoding="utf-8"?>
<!-- Generator: Adobe Illustrator 19.2.0, SVG Export Plug-In . SVG Version: 6.00 Build 0)  -->
<svg version="1.1" id="Layer_1" xmlns="http://www.w3.org/2000/svg" xmlns:xlink="http://www.w3.org/1999/xlink" x="0px" y="0px"
	 viewBox="0 0 31 31" style="enable-background:new 0 0 31 31;" xml:space="preserve">
<path d="M27.4,22.9l-5.3-4.8v2.8c-4.3,0.1-8.6,0.7-11.9,2c1.7-2.8,4.7-4.8,8.1-5.5v2.5l5.3-4.8l-5.3-4.8v3c-3.8,0.6-7.2,2.4-9.7,5.1
	c0.8-4,2.1-6.8,3.2-8.1v2.1l5.3-4.8l-5.3-4.8v3C6.5,7.1,3.7,18,3.7,28.7h0.8h3.2h0.8c0-0.6,3.7-3.6,13.6-3.8v2.8L27.4,22.9z"/>
</svg>
