<?xml version="1.0" encoding="utf-8"?>
<!-- Generator: Adobe Illustrator 19.2.0, SVG Export Plug-In . SVG Version: 6.00 Build 0)  -->
<svg version="1.1" id="Layer_1" xmlns="http://www.w3.org/2000/svg" xmlns:xlink="http://www.w3.org/1999/xlink" x="0px" y="0px"
	 viewBox="0 0 31 31" enable-background="new 0 0 31 31" xml:space="preserve">
<g>
	<g>
		<g>
			<path fill="#178FEB" d="M15.5,2C8,2,2,8,2,15.5C2,23,8,29,15.5,29S29,23,29,15.5C29,8,23,2,15.5,2z M15.5,26
				C9.7,26,5,21.3,5,15.5C5,9.7,9.7,5,15.5,5S26,9.7,26,15.5C26,21.3,21.3,26,15.5,26z"/>
		</g>
	</g>
	<g>
		<g>
			<polygon fill="#178FEB" points="16.8,9 14,9 14,18 21,18 21,15.2 16.8,15.2 			"/>
		</g>
	</g>
</g>
</svg>
