<?xml version="1.0" encoding="utf-8"?>
<!-- Generator: Adobe Illustrator 19.2.0, SVG Export Plug-In . SVG Version: 6.00 Build 0)  -->
<svg version="1.1" id="Layer_1" xmlns="http://www.w3.org/2000/svg" xmlns:xlink="http://www.w3.org/1999/xlink" x="0px" y="0px"
	 viewBox="0 0 31 31" enable-background="new 0 0 31 31" xml:space="preserve">
<g id="hKmGJF.tif_3_">
	<g>
		<g>
			<g>
				<g>
					<path fill="#178FEB" d="M3.5,23.2C3.5,23.2,3.5,23.2,3.5,23.2C3.5,23.2,3.6,23.2,3.5,23.2c0.8,0.1,1.6,0.1,2.4,0
						c1.8-0.2,3.4-0.9,4.8-2c0,0,0.1,0,0.1-0.1c-0.1,0-0.2,0-0.3,0c-0.1,0-0.2,0-0.3,0c-1.9-0.3-3.3-1.5-4-3.3c0-0.1,0-0.1,0.1-0.1
						c0.5,0.1,1,0.1,1.6,0c0.1,0,0.3,0,0.4-0.1c0,0,0,0,0,0c0,0,0,0-0.1,0c-1.2-0.3-2.1-1-2.9-2c-0.6-0.8-0.9-1.8-0.9-2.8
						c0-0.1,0-0.1,0.1-0.1c0.5,0.2,1,0.4,1.5,0.5c0.2,0,0.4,0.1,0.5,0.1c0-0.1-0.1-0.1-0.1-0.1c-0.4-0.3-0.7-0.6-1-1
						c-1-1.4-1.3-3-0.8-4.6C4.8,7.1,5,6.8,5.1,6.5c0-0.1,0.1-0.1,0.1,0c0,0,0,0,0,0c0.5,0.6,1,1.2,1.6,1.7c1.6,1.4,3.3,2.3,5.3,2.9
						c1,0.3,1.9,0.4,2.9,0.5c0.2,0,0.2,0,0.1-0.2c-0.1-0.5-0.1-1.1,0-1.7c0.3-2,1.7-3.7,3.6-4.2c0.3-0.1,0.6-0.1,0.8-0.2
						c0.3,0,0.6,0,0.9,0c0,0,0.1,0,0.1,0c1.1,0.1,2.1,0.6,2.9,1.4c0.1,0.1,0.2,0.1,0.3,0.1c1-0.2,1.9-0.6,2.8-1.1c0,0,0.1-0.1,0.1,0
						c0,0,0,0.1,0,0.1c0,0,0,0,0,0c-0.4,1-1,1.9-1.9,2.5c0,0-0.1,0-0.1,0.1c0.9-0.1,1.8-0.4,2.7-0.8c0,0,0,0,0,0.1
						c0,0-0.1,0.1-0.1,0.1c-0.6,0.9-1.3,1.7-2.2,2.3c-0.1,0.1-0.1,0.2-0.1,0.3c0,0.3,0,0.6,0,0.9c0,0.6-0.1,1.2-0.2,1.7
						c-0.5,3.3-2,6.2-4.4,8.5c-0.9,0.9-1.9,1.6-3,2.2c-1.8,1-3.8,1.4-5.9,1.5c-0.8,0-1.6,0-2.4-0.1c-2-0.3-3.8-1-5.5-2
						C3.6,23.3,3.5,23.2,3.5,23.2z"/>
				</g>
			</g>
		</g>
	</g>
</g>
</svg>
