<?xml version="1.0" encoding="utf-8"?>
<!-- Generator: Adobe Illustrator 19.2.0, SVG Export Plug-In . SVG Version: 6.00 Build 0)  -->
<svg version="1.1" id="Layer_1" xmlns="http://www.w3.org/2000/svg" xmlns:xlink="http://www.w3.org/1999/xlink" x="0px" y="0px"
	 viewBox="0 0 31 31" enable-background="new 0 0 31 31" xml:space="preserve">
<g>
	<g>
		<g>
			<polygon fill="#178FEB" points="28,24 28,23 3,23 3,24 2,24 2,27 29,27 29,24 			"/>
		</g>
	</g>
	<g>
		<g>
			<polygon fill="#178FEB" points="5,21 8,21 8,13 11,13 11,21 14,21 14,13 17,13 17,21 20,21 20,13 23,13 23,21 26,21 26,13 28,13 
				28,10 27,10 27,9.1 15.5,4 4,9.1 4,10 3,10 3,13 5,13 			"/>
		</g>
	</g>
</g>
</svg>
