<?xml version="1.0" encoding="utf-8"?>
<!-- Generator: Adobe Illustrator 19.2.0, SVG Export Plug-In . SVG Version: 6.00 Build 0)  -->
<svg version="1.1" id="Layer_1" xmlns="http://www.w3.org/2000/svg" xmlns:xlink="http://www.w3.org/1999/xlink" x="0px" y="0px"
	 viewBox="0 0 31 31" enable-background="new 0 0 31 31" xml:space="preserve">
<g>
	<g>
		<g>
			<g>
				<path fill="#178FEB" d="M28.4,12.9l-7.7,7.7c-2.1,2.1-5.6,2.1-7.7,0l-2.6-2.6l2.6-2.6l2.6,2.6c0.7,0.7,1.9,0.7,2.6,0l7.7-7.7
					c0.7-0.7,0.7-1.9,0-2.6l-2.6-2.6c-0.7-0.7-1.9-0.7-2.6,0l-2.8,2.8c-1.3-0.8-2.7-1.1-4.2-1l4.4-4.4c2.1-2.1,5.6-2.1,7.7,0
					l2.6,2.6C30.5,7.3,30.5,10.8,28.4,12.9z M13.1,23.1l-2.8,2.8c-0.7,0.7-1.9,0.7-2.6,0l-2.6-2.6c-0.7-0.7-0.7-1.9,0-2.6l7.7-7.7
					c0.7-0.7,1.9-0.7,2.6,0l2.6,2.6l2.6-2.6l-2.6-2.6c-2.1-2.1-5.6-2.1-7.7,0l-7.7,7.7c-2.1,2.1-2.1,5.6,0,7.7l2.6,2.6
					c2.1,2.1,5.6,2.1,7.7,0l4.4-4.4C15.8,24.1,14.4,23.8,13.1,23.1z"/>
			</g>
		</g>
	</g>
</g>
</svg>
