<?xml version="1.0" encoding="utf-8"?>
<!-- Generator: Adobe Illustrator 19.2.0, SVG Export Plug-In . SVG Version: 6.00 Build 0)  -->
<svg version="1.1" id="Layer_1" xmlns="http://www.w3.org/2000/svg" xmlns:xlink="http://www.w3.org/1999/xlink" x="0px" y="0px"
	 viewBox="0 0 31 31" enable-background="new 0 0 31 31" xml:space="preserve">
<g>
	<g>
		<g>
			<g>
				<path fill="#178FEB" d="M21.2,6.5v5.4c-0.1,0.2-0.3,0.3-0.4,0.4c-0.2,0.1-0.3,0.2-0.4,0.2c-0.1,0-0.2,0-0.3-0.1
					C20,12.2,20,12.1,20,11.9V6.5h-1.4v5.9c0,0.4,0.1,0.7,0.3,1c0.2,0.2,0.4,0.3,0.7,0.3c0.3,0,0.6-0.1,0.8-0.2
					c0.3-0.2,0.6-0.4,0.8-0.7v0.8h1.4V6.5H21.2z M16.8,6.8c-0.4-0.4-0.9-0.5-1.5-0.5c-0.7,0-1.2,0.2-1.6,0.5
					c-0.4,0.3-0.6,0.7-0.6,1.3v3.7c0,0.6,0.2,1.1,0.6,1.4c0.4,0.4,0.9,0.5,1.5,0.5c0.6,0,1.2-0.2,1.5-0.5c0.4-0.3,0.6-0.8,0.6-1.4
					V8.2C17.4,7.6,17.2,7.2,16.8,6.8z M15.9,11.9c0,0.2-0.1,0.3-0.2,0.4c-0.1,0.1-0.3,0.2-0.5,0.2c-0.2,0-0.3-0.1-0.4-0.2
					c-0.1-0.1-0.2-0.3-0.2-0.4V8.1c0-0.2,0.1-0.3,0.2-0.4c0.1-0.1,0.3-0.1,0.4-0.1c0.2,0,0.3,0,0.5,0.1c0.1,0.1,0.2,0.2,0.2,0.4
					V11.9z M11.5,4l-1,3.8h-0.1L9.3,4H7.7l1.9,5.8v3.8h1.6v-4L13.1,4H11.5z M22.7,20.8c0.1,0.1,0.1,0.3,0.1,0.6v0.7h-1.1v-0.7
					c0-0.3,0-0.5,0.1-0.6c0.1-0.1,0.2-0.2,0.4-0.2C22.5,20.7,22.6,20.7,22.7,20.8z M18.3,20.8c-0.1-0.1-0.2-0.2-0.4-0.2
					c-0.1,0-0.2,0-0.3,0.1c-0.1,0-0.2,0.1-0.3,0.2v4c0.1,0.1,0.2,0.2,0.3,0.2c0.1,0,0.2,0.1,0.3,0.1c0.2,0,0.3,0,0.3-0.1
					c0.1-0.1,0.1-0.2,0.1-0.4v-3.3C18.4,21.1,18.4,20.9,18.3,20.8z M18.3,20.8c-0.1-0.1-0.2-0.2-0.4-0.2c-0.1,0-0.2,0-0.3,0.1
					c-0.1,0-0.2,0.1-0.3,0.2v4c0.1,0.1,0.2,0.2,0.3,0.2c0.1,0,0.2,0.1,0.3,0.1c0.2,0,0.3,0,0.3-0.1c0.1-0.1,0.1-0.2,0.1-0.4v-3.3
					C18.4,21.1,18.4,20.9,18.3,20.8z M25.5,15.9h-20c-2.2,0-4,1.8-4,4V24c0,2.2,1.8,4,4,4h20c2.2,0,4-1.8,4-4v-4.1
					C29.5,17.7,27.7,15.9,25.5,15.9z M10.9,18.7H9.4v7.4H7.9v-7.4H6.5v-1.3h4.4V18.7z M15.1,26.1h-1.3v-0.7
					c-0.2,0.3-0.5,0.5-0.7,0.6c-0.3,0.1-0.5,0.2-0.7,0.2c-0.3,0-0.5-0.1-0.7-0.3c-0.1-0.2-0.2-0.5-0.2-0.8v-5.4h1.3v4.9
					c0,0.1,0,0.3,0.1,0.3c0,0.1,0.1,0.1,0.3,0.1c0.1,0,0.2,0,0.4-0.1c0.2-0.1,0.3-0.2,0.4-0.3v-4.9h1.3V26.1z M19.7,24.8
					c0,0.5-0.1,0.8-0.3,1c-0.2,0.2-0.5,0.4-0.9,0.4c-0.3,0-0.5,0-0.7-0.1c-0.2-0.1-0.4-0.2-0.5-0.4v0.5H16v-8.7h1.3v2.8
					c0.2-0.2,0.4-0.3,0.5-0.4c0.2-0.1,0.4-0.2,0.6-0.2c0.4,0,0.7,0.1,0.9,0.4c0.2,0.3,0.3,0.7,0.3,1.2V24.8z M24.2,23.1h-2.4v1.2
					c0,0.3,0,0.6,0.1,0.7c0.1,0.1,0.2,0.2,0.4,0.2c0.2,0,0.4-0.1,0.4-0.2c0.1-0.1,0.1-0.4,0.1-0.7V24h1.3v0.3c0,0.7-0.2,1.2-0.5,1.5
					c-0.3,0.3-0.8,0.5-1.4,0.5c-0.6,0-1-0.2-1.4-0.5c-0.3-0.4-0.5-0.8-0.5-1.5v-2.9c0-0.6,0.2-1,0.6-1.4c0.4-0.3,0.8-0.5,1.4-0.5
					c0.6,0,1,0.2,1.3,0.5c0.3,0.3,0.5,0.8,0.5,1.4V23.1z M17.9,20.6c-0.1,0-0.2,0-0.3,0.1c-0.1,0-0.2,0.1-0.3,0.2v4
					c0.1,0.1,0.2,0.2,0.3,0.2c0.1,0,0.2,0.1,0.3,0.1c0.2,0,0.3,0,0.3-0.1c0.1-0.1,0.1-0.2,0.1-0.4v-3.3c0-0.2,0-0.4-0.1-0.5
					C18.2,20.7,18,20.6,17.9,20.6z M18.3,20.8c-0.1-0.1-0.2-0.2-0.4-0.2c-0.1,0-0.2,0-0.3,0.1c-0.1,0-0.2,0.1-0.3,0.2v4
					c0.1,0.1,0.2,0.2,0.3,0.2c0.1,0,0.2,0.1,0.3,0.1c0.2,0,0.3,0,0.3-0.1c0.1-0.1,0.1-0.2,0.1-0.4v-3.3
					C18.4,21.1,18.4,20.9,18.3,20.8z M18.3,20.8c-0.1-0.1-0.2-0.2-0.4-0.2c-0.1,0-0.2,0-0.3,0.1c-0.1,0-0.2,0.1-0.3,0.2v4
					c0.1,0.1,0.2,0.2,0.3,0.2c0.1,0,0.2,0.1,0.3,0.1c0.2,0,0.3,0,0.3-0.1c0.1-0.1,0.1-0.2,0.1-0.4v-3.3
					C18.4,21.1,18.4,20.9,18.3,20.8z"/>
			</g>
		</g>
	</g>
</g>
</svg>
