<svg xmlns="http://www.w3.org/2000/svg" viewBox="0 0 60 60"><defs><style>.cls-1{fill:#d8d8d8;}.cls-2{fill:#919191;}</style></defs><title>defaultpic</title><g id="Layer_2" data-name="Layer 2"><g id="Layer_1-2" data-name="Layer 1"><g id="Page-1"><g id="Desktop"><g id="Group"><circle id="Oval" class="cls-1" cx="30" cy="30" r="30"/><g id="Asset-1"><path id="Shape" class="cls-2" d="M34.15,37.25q-.13-1.81-.08-3.63c.61-.33,1.68-2.44,1.9-4.21.48,0,1.25-.53,1.47-2.43a1.81,1.81,0,0,0-.65-1.78c.78-2.42,2.42-9.91-3-10.69-.56-1-2-1.51-3.85-1.51-7.45.14-8.35,5.77-6.74,12.2A1.81,1.81,0,0,0,22.54,27c.24,1.9,1,2.39,1.48,2.39.19,1.78,1.33,3.88,1.95,4.21q.05,1.82-.08,3.63C24.42,41.31,14.46,40.17,14,48H46C45.55,40.17,35.63,41.31,34.15,37.25Z"/></g></g></g></g></g></g></svg>