<?xml version="1.0" encoding="utf-8"?>
<!-- Generator: Adobe Illustrator 16.0.0, SVG Export Plug-In . SVG Version: 6.00 Build 0)  -->
<!DOCTYPE svg PUBLIC "-//W3C//DTD SVG 1.1 Tiny//EN" "http://www.w3.org/Graphics/SVG/1.1/DTD/svg11-tiny.dtd">
<svg version="1.1" baseProfile="tiny" id="Layer_1" xmlns="http://www.w3.org/2000/svg" xmlns:xlink="http://www.w3.org/1999/xlink"
	 x="0px" y="0px" width="107.076px" height="100.385px" viewBox="0 0 107.076 100.385" xml:space="preserve">
<g>
	<path fill="#FFFFFF" d="M89.105,53.379c-2.599-1.695-3.652-5.1-4.062-7.941c-2.561,0.265-6.821,0.304-8.855-4.87
		c-1.602-4.069-0.938-10.811-6.291-16.522c-4.87-5.193-10.861-6.904-16.357-6.52c6.736,4.504,4.08,11.296-0.812,11.296
		c-6.81,0-8.714-8.201-18.681-8.201c-2.279,0-4.287,0.712-5.541,1.54c5.582,0.704,6.918,5.281,8.662,9.424
		c1.387,3.293,3.865,5.209,7.495,6.215c-0.655,0.376-2.222,0.839-4.247,0.839c-4.402,0-7.469-2.315-10.621-5.563
		c-2.773-2.858-5.868-5.566-11.057-5.566c-2.552,0-4.506,0.809-5.184,1.265c2.85,0.448,7.056,2.146,7.056,5.158
		c0,2.576-2.849,3.562-5.185,1.097c-2.598-2.744-6.246-4.82-10.422-4.82c-2.062,0-4.127,0.657-5.004,1.512
		c4.949,0.569,7.881,3.748,10.945,10.833c1.729,4.001,4.191,7.78,10.392,7.853c2.823,0.033,6.83-1.309,9.183,0.948
		c2.225,2.136,1.477,4.938,2.498,7.212c1.279,2.855,3.936,4.326,9.13,4.598c-4.309,3.606-14.607,1.441-18.116-2.24
		c0.461,9.22,7.736,17.494,22.176,13.604c2.511-0.676,4.303-0.293,5.268,2.246c1.326,3.486,4.467,4.066,7.436,3.697
		c6.787-0.84,10.814,0.525,14.723,5.193c0.852-7.723-4.668-12.26-8.135-14.429c-3.303-2.065-3.625-4.214-3.666-5.877
		c2.39,2.733,5.504,3.894,8.746,4.349c5.604,0.789,9.616,2.352,11.741,5.355c0.619-8.49-8.292-10.408-9.386-13.979
		c2.805,1.829,4.87,2.494,7.791,2.271c3.896-0.294,8.633-3.352,12.126,2.633c4.459-2.897,10.302-1.865,14.226,0.673
		C103.213,58.16,94.537,56.922,89.105,53.379z M58.559,55.212H48.52V45.174h10.039V55.212z"/>
	<rect x="48.52" y="90.346" fill="#FFFFFF" width="10.039" height="10.039"/>
	<rect x="48.52" fill="#FFFFFF" width="10.039" height="10.039"/>
</g>
</svg>
